<?xml version="1.0" standalone="no"?>
<!DOCTYPE svg PUBLIC "-//W3C//DTD SVG 20010904//EN"
 "http://www.w3.org/TR/2001/REC-SVG-20010904/DTD/svg10.dtd">
<svg version="1.0" xmlns="http://www.w3.org/2000/svg"
 width="1024.000000pt" height="1024.000000pt" viewBox="0 0 1024.000000 1024.000000"
 preserveAspectRatio="xMidYMid meet">

<g transform="translate(0.000000,1024.000000) scale(0.100000,-0.100000)"
fill="#000000" stroke="none">
<path d="M0 5120 l0 -5120 34 0 34 0 -5 342 -5 343 23 21 c13 12 96 58 184
103 290 147 433 232 305 180 -30 -12 -63 -24 -72 -26 -10 -3 -18 -10 -18 -15
0 -5 -6 -8 -12 -6 -7 3 -20 -5 -29 -16 -10 -12 -21 -17 -25 -13 -5 4 -2 13 6
18 11 8 8 9 -10 3 -32 -8 -39 -15 -22 -22 23 -7 -67 -54 -106 -54 -13 0 -21
-3 -18 -6 3 -2 -39 -27 -94 -55 -55 -28 -102 -49 -104 -46 -3 3 -1 30 5 60 5
29 10 68 10 84 0 17 -1 57 -1 90 0 83 9 127 26 121 7 -3 16 3 19 13 3 9 33 47
68 82 87 91 102 109 90 109 -5 0 -38 -26 -73 -57 -34 -32 -69 -62 -76 -66 -8
-4 -14 -16 -14 -26 0 -10 -7 -24 -15 -31 -12 -10 -14 29 -16 302 -5 905 -3
1671 5 1738 5 41 9 101 9 133 0 31 4 57 9 57 4 0 3 9 -4 19 -8 13 -9 24 -2 33
5 7 9 33 9 58 0 25 3 47 6 50 3 3 8 26 11 52 4 37 2 48 -8 48 -16 0 -18 28 -4
50 7 11 10 11 10 2 0 -7 4 -11 10 -7 14 9 0 34 -16 28 -9 -3 -14 1 -14 12 0
11 5 15 15 11 11 -4 15 1 15 19 0 14 -5 23 -13 22 -6 -2 -2 1 11 7 15 7 20 16
16 28 -3 10 -1 18 5 18 6 0 11 7 11 15 0 8 5 15 10 15 12 0 12 -4 0 -55 -6
-25 -5 -57 2 -88 12 -59 23 -54 19 9 -1 34 1 45 11 42 16 -6 41 84 26 93 -7 4
-6 9 2 14 15 9 32 -14 25 -33 -3 -8 -5 -25 -5 -38 0 -14 -4 -22 -10 -19 -6 4
-10 -6 -10 -22 0 -15 -2 -53 -5 -83 -3 -30 -3 -49 1 -42 3 6 10 9 15 6 6 -3 7
4 4 18 -3 13 -1 44 5 68 7 25 14 60 17 78 3 19 11 32 20 32 7 0 13 6 12 13 -1
6 -1 19 0 27 1 13 3 13 10 1 5 -8 7 -20 4 -28 -3 -7 -1 -13 5 -13 5 0 12 -15
14 -34 2 -19 1 -33 -2 -31 -7 5 -32 -136 -26 -143 3 -2 8 9 11 24 4 16 9 38
13 49 5 18 6 18 12 -5 6 -22 8 -19 14 20 5 25 12 50 16 55 5 6 10 24 13 40 3
25 4 24 6 -11 0 -22 -3 -44 -8 -50 -6 -5 -6 -28 0 -58 5 -28 6 -59 3 -70 -4
-15 -3 -18 4 -11 6 6 15 103 21 234 5 123 12 225 14 227 2 3 8 -33 13 -78 l8
-83 6 55 c3 30 14 71 25 90 10 19 24 53 32 75 12 38 13 37 7 -35 -4 -41 -9
-77 -13 -80 -3 -3 -4 -32 -1 -65 l5 -60 14 53 c22 79 31 73 26 -15 -4 -62 -3
-71 5 -43 5 19 13 94 17 165 3 72 7 126 9 120 1 -5 5 -36 9 -68 4 -32 10 -56
13 -52 4 4 10 100 13 213 7 206 14 286 28 325 10 27 4 -116 -10 -250 -11 -102
-5 -173 12 -156 5 5 12 51 15 103 4 53 13 104 20 115 17 24 18 65 3 65 -7 0
-9 10 -5 28 11 46 48 163 51 160 8 -10 -25 -295 -44 -383 -7 -27 -13 -108 -16
-180 -2 -71 -8 -164 -13 -205 -7 -53 -6 -99 2 -155 l12 -80 5 155 c4 114 11
177 28 240 32 123 44 162 57 189 13 25 7 63 -6 41 -14 -22 -18 73 -8 180 5 58
13 109 18 113 4 5 6 -52 5 -127 -3 -108 -1 -136 10 -136 13 0 28 67 41 184 6
65 12 86 24 86 8 0 8 0 -19 -155 -11 -60 -22 -167 -25 -236 -3 -70 -8 -133
-10 -140 -7 -21 -16 -142 -10 -136 3 3 9 31 15 63 5 33 14 84 20 114 5 30 14
107 19 170 5 63 14 141 21 173 10 52 13 56 24 40 13 -17 14 -17 21 0 4 12 0
23 -12 32 -15 11 -17 16 -6 26 6 7 12 21 12 31 0 10 6 18 14 18 8 0 17 7 20
16 10 26 7 54 -6 54 -9 0 -9 3 0 12 7 7 12 24 12 38 0 14 4 30 9 35 5 6 14 71
20 145 12 144 33 279 50 320 9 22 10 20 6 -15 -29 -253 -46 -541 -34 -565 6
-11 9 -9 9 10 2 45 9 103 14 107 11 11 16 -65 7 -90 -13 -34 -14 -182 -1 -152
5 11 9 36 9 55 1 19 5 30 9 24 4 -7 8 25 10 70 2 44 10 113 18 151 9 39 19
104 23 146 4 42 11 81 15 87 12 20 26 3 26 -33 0 -18 4 -35 10 -37 6 -2 7 -27
2 -68 -4 -36 -5 -76 -1 -90 5 -22 7 -21 14 15 14 74 22 110 55 225 63 222 78
266 86 247 3 -10 2 -35 -4 -55 -7 -20 -16 -70 -22 -111 -6 -40 -15 -82 -20
-92 -15 -28 -12 -45 5 -23 8 10 15 33 16 49 l2 30 4 -27 c2 -16 8 -28 13 -28
8 0 13 22 36 142 3 15 12 33 21 40 15 12 16 6 10 -67 -3 -44 -11 -81 -16 -83
-14 -5 -14 -82 -1 -82 6 0 11 10 11 23 1 12 3 29 4 37 1 8 3 29 4 45 1 20 4
26 10 17 8 -13 31 48 47 123 3 17 15 54 25 83 10 29 19 61 19 71 0 25 51 122
67 128 7 3 13 20 13 37 0 18 7 41 15 52 14 19 14 19 15 -1 0 -32 -20 -95 -30
-95 -6 0 -10 -9 -10 -19 0 -11 -4 -22 -9 -25 -12 -8 -20 -55 -10 -62 17 -10 9
-34 -11 -34 -23 0 -26 -5 -35 -75 l-7 -50 22 20 21 19 -6 -27 c-8 -30 10 -39
19 -9 3 9 4 -3 1 -28 -3 -41 -2 -43 8 -17 11 28 27 37 27 15 0 -7 9 -4 20 8
16 16 21 38 26 104 5 74 9 89 32 113 14 15 20 27 13 27 -7 0 -11 9 -9 23 2 12
8 22 13 22 6 0 11 -10 13 -22 2 -13 8 -23 13 -23 5 0 9 -7 9 -15 0 -8 -4 -15
-9 -15 -17 0 -41 -62 -41 -107 0 -23 4 -43 9 -43 4 0 7 24 5 53 -2 28 -1 43 2
32 11 -38 24 -40 24 -3 0 44 8 68 24 68 24 0 66 68 66 108 0 15 4 32 9 37 4 6
14 33 20 60 7 28 75 176 151 330 77 154 139 284 139 288 0 5 6 14 14 20 8 7
32 45 52 85 20 39 39 72 41 72 2 0 2 -19 -2 -42 -4 -32 -3 -39 5 -28 6 8 11
27 11 43 0 15 5 27 10 27 15 0 3 -141 -17 -203 -11 -34 -19 -47 -29 -43 -11 4
-12 2 -4 -14 12 -23 13 -33 1 -26 -5 3 -11 -29 -13 -72 -5 -80 -3 -98 7 -66 4
10 14 35 22 54 9 19 18 41 19 49 1 8 8 17 14 21 7 4 11 18 9 31 -1 13 1 31 4
39 3 8 9 47 13 85 l8 70 7 -60 c4 -34 3 -61 -2 -63 -5 -2 -9 -8 -9 -13 0 -4 6
-6 14 -3 11 4 17 -5 22 -32 4 -20 13 -49 20 -63 8 -15 12 -40 8 -61 -19 -119
-39 -200 -65 -263 -46 -111 -68 -177 -59 -177 8 0 80 163 80 181 0 5 11 42 25
81 14 39 25 81 25 92 1 18 2 18 10 5 12 -21 6 -240 -8 -266 -6 -11 -11 -37
-10 -56 1 -39 -19 -97 -34 -97 -6 0 -8 9 -4 20 19 61 19 65 6 53 -15 -13 -40
-79 -40 -103 0 -13 1 -13 11 0 8 12 9 10 5 -10 -3 -14 -6 -33 -6 -43 0 -11 -4
-15 -12 -11 -7 4 -8 3 -4 -5 4 -6 11 -9 16 -6 4 3 10 -1 13 -7 2 -8 8 -9 13
-4 5 5 4 11 -3 13 -17 6 -17 23 0 23 13 0 61 94 73 143 3 16 13 31 20 34 7 2
18 19 24 36 6 18 20 43 31 57 l21 25 -7 -25 c-3 -14 -7 -32 -8 -40 -1 -8 -5
-17 -9 -20 -4 -4 -9 -19 -12 -35 -2 -17 -1 -23 1 -15 11 35 21 28 27 -20 8
-56 0 -114 -18 -145 -7 -11 -10 -31 -6 -45 5 -23 7 -23 13 -6 5 12 3 22 -5 28
-10 6 -10 8 -1 8 7 0 21 17 32 38 l20 37 1 -37 c0 -25 5 -38 13 -38 16 0 23
-95 7 -105 -5 -3 -10 -13 -10 -21 0 -8 4 -13 9 -9 6 3 8 -7 7 -22 -2 -16 -4
-36 -5 -45 -2 -27 -18 -21 -26 10 l-7 27 -12 -35 c-7 -19 -9 -39 -4 -45 4 -5
8 -17 8 -27 0 -10 5 -18 10 -18 6 0 13 -1 17 -2 5 -2 8 4 8 12 0 8 4 30 9 49
6 24 11 30 17 20 5 -9 6 1 2 23 -3 21 0 59 6 84 12 46 45 104 60 104 4 0 5
-114 4 -254 -3 -245 7 -342 21 -195 6 68 43 166 71 189 9 7 18 -34 38 -158 27
-175 40 -300 28 -268 -6 15 -10 16 -15 7 -10 -16 2 -148 15 -173 13 -24 59
-24 59 0 1 39 17 -15 29 -98 7 -47 22 -119 33 -160 11 -41 21 -95 23 -120 4
-50 30 -196 40 -221 3 -8 1 -28 -4 -42 -9 -22 -17 -27 -46 -27 -20 0 -52 7
-72 15 -46 19 -50 19 -29 -3 14 -17 81 -38 144 -45 12 -2 26 -7 31 -13 8 -9
51 -125 51 -137 0 -4 -19 -16 -42 -28 -24 -12 -74 -43 -113 -69 -38 -26 -88
-59 -111 -74 -49 -32 -67 -66 -58 -112 5 -26 2 -35 -11 -40 -22 -9 -62 14 -68
38 -5 18 -7 18 -55 -6 -39 -20 -55 -35 -72 -71 -12 -25 -28 -45 -36 -45 -8 0
-14 -5 -14 -10 0 -6 -18 -1 -39 12 l-39 22 -53 -45 c-30 -25 -86 -69 -125 -97
-67 -49 -104 -89 -68 -75 14 5 44 -13 44 -27 0 -11 -51 -60 -62 -60 -6 0 -7
11 -4 26 6 22 4 25 -9 20 -9 -3 -21 -6 -26 -6 -5 0 -9 -5 -9 -11 0 -5 4 -7 10
-4 5 3 10 2 10 -4 0 -5 -4 -11 -8 -13 -4 -1 -19 -21 -32 -43 -24 -40 -56 -70
-75 -70 -5 0 -14 -5 -20 -11 -5 -6 -52 -46 -104 -89 -51 -43 -109 -99 -127
-124 -34 -46 -126 -223 -140 -271 -6 -23 -6 -23 14 -10 11 8 41 32 66 53 33
28 51 37 66 32 36 -11 24 -52 -22 -76 -153 -80 -178 -99 -208 -158 -30 -61
-29 -89 2 -49 10 13 18 17 18 10 0 -7 4 -11 8 -8 5 3 23 8 41 11 18 3 40 11
50 17 28 17 48 4 55 -36 6 -32 26 -52 26 -25 0 5 5 7 10 4 6 -3 10 -17 10 -30
0 -17 16 -36 59 -69 80 -62 148 -140 161 -184 5 -20 13 -62 15 -92 3 -30 8
-73 11 -94 l5 -40 -18 25 c-10 13 -36 53 -57 89 -22 36 -49 76 -61 90 -49 55
-134 190 -120 190 22 0 18 31 -5 37 -11 3 -20 10 -20 15 0 6 -7 7 -17 2 -10
-4 -61 -8 -114 -9 -65 0 -101 -4 -112 -14 -9 -7 -33 -47 -53 -88 -33 -69 -34
-76 -18 -87 26 -19 12 -31 -60 -50 -36 -10 -71 -24 -77 -32 -7 -8 -16 -61 -21
-117 -11 -110 -28 -154 -56 -141 -9 4 -36 9 -58 12 -46 4 -117 -25 -128 -53
-5 -14 -1 -16 27 -10 30 6 31 5 13 -10 -11 -8 -28 -15 -38 -15 -10 0 -18 -4
-18 -10 0 -16 51 -84 83 -111 38 -32 164 -109 176 -109 5 0 24 -19 42 -43 18
-23 48 -58 66 -78 l34 -36 -54 -79 c-75 -111 -160 -267 -187 -344 -27 -79 -30
-199 -6 -245 9 -16 16 -39 16 -50 0 -22 74 -180 88 -189 31 -19 67 109 142
514 28 154 63 307 72 316 3 2 51 -37 109 -88 144 -125 171 -147 277 -218 50
-34 92 -66 92 -70 0 -10 -97 -97 -180 -163 -48 -38 -62 -59 -121 -176 -37 -73
-82 -148 -100 -167 -18 -19 -69 -57 -114 -86 -44 -28 -98 -63 -120 -77 l-40
-26 44 -3 c24 -2 47 1 50 6 3 5 44 31 91 57 174 99 222 151 270 285 41 112 79
156 227 260 l63 44 42 -33 c144 -109 292 -191 518 -287 220 -93 295 -144 390
-264 l55 -69 713 -1 c391 0 712 2 712 4 0 4 -122 73 -262 150 -77 42 -89 54
-25 26 24 -11 62 -22 86 -26 41 -7 43 -6 36 14 -5 17 -3 21 9 16 27 -10 18 7
-29 55 -55 57 -89 104 -114 158 -27 58 -107 174 -178 257 -324 383 -455 577
-525 776 -40 114 -52 277 -78 1130 -6 190 -14 361 -17 380 -8 52 3 34 71 -107
67 -141 102 -202 126 -220 10 -8 11 -12 3 -13 -14 0 25 -90 39 -90 4 0 8 -9 8
-20 0 -11 9 -25 20 -32 11 -7 20 -18 20 -25 0 -16 120 -192 189 -276 31 -38
55 -73 54 -78 -7 -23 100 -164 140 -185 15 -8 40 -26 55 -39 15 -14 43 -38 62
-55 24 -21 30 -30 18 -30 -9 0 -23 6 -30 13 -27 26 -88 69 -88 62 0 -5 24 -33
53 -64 28 -31 66 -72 83 -92 26 -30 64 -57 64 -44 0 2 -17 20 -37 39 -21 19
-34 38 -31 42 4 3 33 -18 65 -49 103 -98 147 -137 154 -137 4 0 36 -18 71 -39
71 -43 224 -115 368 -173 90 -37 92 -38 45 -32 -84 10 -305 93 -305 115 0 5
-4 9 -10 9 -5 0 -26 12 -47 26 -21 14 -68 41 -104 59 -37 19 -73 40 -81 48
-15 15 -53 37 -64 37 -11 0 60 -52 116 -85 50 -29 93 -56 195 -120 45 -28 153
-74 213 -90 12 -4 20 -10 17 -15 -3 -5 9 -12 27 -15 18 -4 44 -13 58 -21 14
-7 49 -23 78 -36 28 -13 52 -26 52 -30 0 -4 14 -14 30 -23 38 -20 39 -38 3
-29 -25 7 -27 6 -14 -9 7 -10 22 -17 32 -17 10 0 20 -4 23 -8 2 -4 -11 -8 -30
-8 -20 0 -39 -6 -43 -13 -15 -23 -49 -10 -266 96 -85 42 -115 54 -115 47 0 -3
55 -32 123 -64 111 -53 168 -93 153 -108 -3 -3 -1 -11 6 -19 8 -11 7 -17 -8
-28 -18 -14 -18 -14 -1 -15 10 0 15 -4 12 -10 -3 -5 -1 -10 4 -10 19 0 12 -30
-6 -31 -14 0 -15 -2 -3 -6 22 -9 50 -47 39 -54 -21 -12 9 -57 46 -69 20 -7 39
-9 42 -6 4 3 13 -3 21 -15 11 -16 20 -19 43 -14 28 6 43 -9 17 -17 -24 -8 3
-28 30 -22 22 5 25 4 15 -7 -21 -21 -15 -31 9 -15 15 11 25 12 34 5 8 -6 23
-5 45 5 99 42 162 66 166 62 5 -5 -135 -89 -187 -112 -22 -10 -40 -22 -40 -26
0 -5 -10 -6 -23 -3 -33 9 -73 -35 -58 -63 6 -11 8 -22 6 -26 -3 -3 1 -2 7 4
18 15 69 12 88 -5 16 -14 20 -14 47 1 67 39 113 -10 113 -121 0 -58 2 -66 18
-63 14 3 17 17 20 96 3 90 3 92 27 92 25 0 25 -1 25 -85 0 -47 3 -85 6 -85 3
0 14 5 25 10 16 9 19 22 19 86 l0 76 33 -5 c17 -2 40 0 50 5 45 24 107 -23
107 -81 0 -14 5 -18 20 -14 16 4 20 14 20 49 0 40 2 44 25 44 l25 0 0 -101 c0
-90 2 -100 15 -89 13 10 18 11 28 1 9 -10 8 -11 -7 -5 -13 5 -17 4 -12 -4 4
-7 2 -12 -4 -12 -6 0 -23 -12 -38 -26 -15 -14 -21 -24 -13 -22 26 6 21 -18
-11 -52 l-33 -33 39 6 c21 3 120 47 220 97 99 50 168 80 153 67 -59 -50 -531
-303 -598 -320 -18 -5 -19 -9 -9 -29 10 -21 10 -21 -4 -5 -12 16 -19 17 -55 7
-23 -6 -39 -15 -36 -20 4 -6 608 -10 1520 -10 1304 0 1515 2 1515 14 0 8 15
26 33 40 17 14 39 33 47 40 59 55 215 101 263 78 12 -6 38 -16 57 -22 44 -13
83 -46 77 -62 -8 -22 12 -46 44 -53 17 -4 33 -13 36 -21 4 -12 106 -14 654
-14 l649 0 0 5120 0 5120 -5120 0 -5120 0 0 -5120z m6924 4345 c3 -8 1 -15 -3
-15 -5 0 -11 7 -15 15 -3 8 -1 15 3 15 5 0 11 -7 15 -15z m573 -537 c-3 -8 -6
-5 -6 6 -1 11 2 17 5 13 3 -3 4 -12 1 -19z m24 -515 c-12 -20 -14 -14 -5 12 4
9 9 14 11 11 3 -2 0 -13 -6 -23z m554 -363 c4 -22 15 -50 26 -64 10 -13 19
-29 19 -35 0 -6 4 -11 9 -11 4 0 15 -17 24 -37 l15 -38 1 30 1 30 20 -25 c28
-37 42 -113 40 -230 0 -58 20 -133 41 -150 12 -10 28 -46 55 -129 27 -81 27
-84 9 -97 -19 -14 -11 -19 23 -15 6 1 12 -5 12 -13 0 -8 6 -19 13 -23 6 -4 25
-34 42 -65 16 -32 31 -55 33 -53 3 2 -5 31 -18 65 -19 51 -20 62 -9 76 8 9 12
27 11 40 -2 13 1 24 6 24 13 0 24 -44 12 -48 -18 -6 -11 -71 10 -92 10 -10 22
-15 25 -10 3 5 -3 18 -15 30 -24 24 -26 43 -5 60 12 10 15 10 15 -3 0 -28 33
-87 52 -93 22 -7 24 -34 2 -34 -9 0 -14 -6 -11 -12 2 -7 10 -12 16 -11 6 2 11
-8 11 -22 0 -14 5 -25 10 -25 6 0 10 -9 10 -20 0 -22 26 -80 37 -80 9 0 -5 57
-23 96 -9 18 -14 40 -11 49 4 8 2 17 -3 20 -6 4 -10 18 -10 32 0 22 -25 80
-41 93 -10 8 -39 68 -39 80 0 24 18 7 36 -35 19 -46 28 -55 37 -32 3 6 6 2 6
-10 1 -12 5 -24 10 -27 5 -3 17 -35 26 -71 10 -36 22 -68 27 -71 4 -3 8 -14 8
-25 0 -11 5 -30 12 -42 6 -12 12 -33 14 -47 15 -153 17 -163 35 -167 11 -3 19
-15 20 -27 0 -20 1 -20 8 -1 7 16 10 10 16 -27 4 -26 13 -49 20 -51 7 -3 15
-25 19 -48 5 -29 10 -39 15 -30 7 10 17 5 45 -22 20 -19 34 -41 33 -49 -2 -7
-2 -10 0 -5 3 4 12 7 20 7 14 0 13 -3 -1 -25 -20 -31 -20 -49 0 -66 9 -7 29
-36 45 -64 l29 -50 0 36 c0 19 -6 41 -12 47 -10 10 -10 15 2 22 24 16 29 12
52 -37 11 -27 36 -81 54 -121 19 -39 34 -77 34 -82 0 -6 5 -10 11 -10 7 0 10
-12 7 -30 -3 -21 1 -35 14 -47 16 -15 27 -5 11 10 -7 7 -12 39 -16 100 -2 20
-9 43 -15 49 -15 15 -16 68 -2 68 6 0 10 -11 10 -24 0 -14 5 -37 11 -53 6 -15
13 -37 15 -48 5 -24 40 -60 47 -48 3 5 -1 22 -8 38 -27 56 -38 90 -36 106 1 9
-3 27 -8 41 -5 15 -6 30 0 39 6 10 9 7 9 -13 0 -16 5 -28 10 -28 6 0 10 -9 10
-20 0 -12 7 -34 15 -49 26 -50 54 -144 64 -216 6 -38 18 -92 26 -120 l15 -50
-6 58 c-3 36 -2 57 5 57 11 0 41 -90 41 -122 0 -10 5 -18 10 -18 13 0 13 7 -1
50 -6 19 -12 46 -14 60 -2 14 -9 48 -15 75 -16 64 -18 129 -5 135 6 3 13 -13
16 -35 3 -22 13 -60 22 -85 9 -25 17 -55 17 -67 0 -13 5 -23 10 -23 6 0 10
-15 10 -33 0 -18 6 -57 14 -87 8 -30 17 -77 21 -105 10 -68 21 -88 30 -52 4
15 3 33 -3 40 -9 11 -34 158 -47 277 -6 49 -15 94 -32 155 -5 18 -4 19 11 4 9
-8 18 -24 21 -35 2 -10 12 -48 20 -84 9 -36 18 -78 21 -94 2 -16 7 -32 12 -35
5 -3 8 -23 8 -44 0 -20 5 -42 12 -49 9 -9 12 -3 13 28 1 21 4 50 8 64 6 19 9
7 14 -45 4 -38 10 -83 13 -99 5 -22 4 -28 -7 -24 -8 2 -15 17 -17 31 -2 15 -8
27 -13 27 -12 0 -12 -1 12 -76 24 -75 27 -88 28 -129 l1 -29 17 23 c13 20 14
29 5 56 -14 37 -16 85 -3 85 8 0 26 -74 22 -97 -1 -6 3 -14 9 -18 5 -3 10 -13
10 -22 0 -12 -3 -13 -14 -4 -30 25 -27 -61 4 -118 5 -9 12 -38 16 -66 6 -39 9
-44 12 -22 2 15 -4 60 -13 99 -17 75 -14 93 10 62 15 -18 15 -17 11 11 -2 17
-8 41 -14 55 -6 14 -18 75 -27 135 -19 122 -21 135 -36 218 -5 31 -7 63 -3 69
8 12 58 -174 69 -257 4 -27 11 -58 16 -67 12 -22 69 -361 69 -408 0 -19 4 -41
8 -47 5 -7 7 58 4 145 -2 86 -7 161 -13 167 -5 5 -9 24 -9 43 0 19 -4 31 -10
27 -10 -6 -13 29 -15 175 0 41 -8 120 -18 175 -30 174 -30 166 -11 125 9 -19
25 -84 34 -145 29 -175 31 -192 20 -175 -18 28 -11 -50 16 -175 24 -115 39
-227 47 -345 2 -41 4 -33 5 30 1 59 5 81 13 73 6 -6 11 -81 12 -194 l1 -184
14 80 c16 98 19 243 10 485 -4 102 -4 176 1 165 17 -42 36 -298 35 -485 0
-172 1 -187 10 -127 6 38 14 65 19 61 10 -11 9 364 -2 406 -5 19 -12 60 -15
90 -10 103 13 26 36 -117 18 -110 22 -180 22 -348 1 -115 4 -192 8 -170 4 22
7 69 8 105 0 36 8 90 17 120 9 30 19 109 23 175 4 66 5 -6 2 -160 -3 -193 -1
-277 6 -270 6 6 13 73 17 149 3 76 10 147 15 157 6 10 10 24 9 31 0 7 -4 4 -9
-7 -6 -13 -9 13 -8 77 1 53 4 102 8 108 20 32 27 -280 16 -655 l-5 -140 14
120 c7 66 17 193 21 283 5 110 10 160 17 153 7 -7 11 -128 11 -328 1 -175 2
-300 4 -278 2 37 18 168 25 207 2 10 6 20 9 23 3 4 2 21 -2 38 -14 52 -22 387
-10 387 6 0 11 -27 12 -62 0 -35 3 -85 4 -113 2 -27 7 -108 11 -180 8 -122 9
-128 23 -105 15 24 15 23 22 -45 4 -38 9 -160 12 -270 3 -110 8 -308 11 -439
7 -246 -3 -484 -16 -381 l-6 50 -3 -60 c-6 -122 -5 -283 3 -272 4 7 7 -6 6
-28 -1 -22 4 -83 10 -135 13 -106 12 -560 -1 -690 -5 -47 -11 -130 -13 -185
-7 -135 -11 -183 -20 -229 -6 -28 -4 -41 6 -48 11 -7 11 -11 2 -15 -20 -7 -16
-60 5 -68 16 -6 16 -8 -3 -21 -17 -13 -18 -16 -5 -24 13 -9 13 -11 0 -20 -13
-9 -13 -11 0 -20 13 -8 15 -49 16 -258 l1 -250 -30 9 c-17 5 -33 6 -36 4 -2
-3 1 -5 8 -5 7 0 9 -5 6 -10 -4 -6 -11 -8 -16 -5 -5 4 -9 4 -9 0 0 -3 10 -10
23 -15 18 -8 15 -9 -13 -4 -19 4 -46 12 -60 19 -69 36 -165 78 -217 96 -185
63 -398 153 -489 205 -114 66 -235 126 -411 204 -85 38 -183 85 -219 105 -74
41 -85 60 -159 250 -67 174 -127 289 -204 396 -39 53 -73 110 -77 125 -20 82
-72 147 -225 274 -119 100 -201 181 -302 300 -72 84 -248 241 -339 302 -39 26
-98 58 -130 70 -54 21 -59 25 -54 48 4 14 11 50 18 82 11 54 12 56 35 47 55
-21 118 -4 156 41 79 94 100 179 72 295 -34 147 -35 162 -18 238 12 53 15 111
13 222 -6 319 -6 314 24 420 16 55 33 102 38 103 4 2 8 15 8 30 0 20 3 23 12
14 22 -22 30 -13 23 26 -6 36 -6 36 10 15 24 -34 35 -28 35 17 0 27 4 39 13
38 8 -2 11 8 9 31 -3 24 0 32 10 29 17 -6 38 43 39 91 0 33 1 34 11 14 6 -13
15 -23 21 -23 5 0 7 10 3 23 -18 66 -19 70 -7 63 13 -8 14 1 11 67 -1 34 3 54
15 67 12 13 15 27 10 49 -9 42 0 39 24 -6 19 -36 20 -37 21 -11 0 15 -5 39
-10 54 -18 47 -2 38 21 -12 13 -26 24 -43 27 -36 2 6 -8 71 -22 145 -30 157
-32 252 -6 322 10 28 19 43 19 34 1 -8 7 -24 15 -34 11 -16 12 -10 4 41 -15
101 -10 458 7 564 13 79 29 202 35 270 1 8 8 -8 15 -37 15 -53 55 -138 55
-115 0 7 -6 28 -14 47 -27 63 -30 123 -10 161 23 42 43 44 50 4 4 -16 10 -27
15 -24 5 3 9 -5 9 -18 0 -19 2 -20 11 -8 9 12 10 12 5 -4 -4 -10 -1 -25 5 -32
8 -10 10 -35 6 -74 -4 -33 -3 -60 2 -60 11 0 21 25 21 55 0 12 6 28 14 34 20
16 32 116 18 144 -23 45 -36 108 -25 115 12 8 18 71 27 280 6 120 4 145 -19
248 -15 63 -33 133 -41 156 -12 35 -12 39 0 29 8 -7 17 -30 21 -51z m-94 -98
c26 -56 39 -95 37 -116 -3 -30 -3 -30 -17 14 -8 25 -34 85 -58 134 -32 65 -38
84 -23 71 12 -11 39 -57 61 -103z m-4831 104 c0 -2 -21 -21 -46 -42 -40 -32
-44 -34 -30 -11 10 14 26 29 37 32 10 4 19 11 19 16 0 5 5 9 10 9 6 0 10 -2
10 -4z m675 -186 c-3 -5 -16 -10 -28 -9 -21 0 -21 1 -2 9 28 12 37 12 30 0z
m4444 -35 c27 -8 59 -71 43 -87 -7 -7 -12 -20 -12 -30 0 -16 -3 -16 -19 -6
-15 9 -17 16 -10 25 11 13 -4 78 -22 98 -5 5 -8 16 -8 25 1 12 2 12 6 -2 2 -9
12 -20 22 -23z m25 -212 c3 -21 9 -48 12 -60 4 -14 2 -23 -5 -23 -6 0 -14 12
-17 28 -4 15 -11 30 -16 33 -10 7 0 59 12 59 4 0 10 -17 14 -37z m-6224 -223
c-16 -40 -23 -33 -9 9 6 18 14 30 17 27 2 -3 -1 -19 -8 -36z m6420 15 c0 -14
-4 -25 -9 -25 -4 0 -6 11 -3 25 2 14 6 25 8 25 2 0 4 -11 4 -25z m-51 -41 c3
-16 1 -17 -13 -5 -19 16 -21 34 -3 29 6 -3 14 -13 16 -24z m161 -5 c0 -11 -4
-17 -10 -14 -5 3 -10 13 -10 21 0 8 5 14 10 14 6 0 10 -9 10 -21z m-649 -69
l-10 -25 0 25 c-1 14 3 36 7 50 l7 25 3 -25 c2 -14 -2 -37 -7 -50z m603 34
c10 -38 0 -41 -12 -5 -6 17 -7 31 -3 31 5 0 12 -12 15 -26z m66 -15 c0 -5 -4
-9 -10 -9 -5 0 -10 7 -10 16 0 8 5 12 10 9 6 -3 10 -10 10 -16z m47 -11 c-3
-8 -6 -5 -6 6 -1 11 2 17 5 13 3 -3 4 -12 1 -19z m26 -67 c3 -22 19 -68 35
-104 27 -57 53 -154 52 -196 -1 -28 -30 20 -30 49 0 30 -35 135 -55 166 -18
28 -31 124 -18 124 6 0 13 -18 16 -39z m-6637 -23 c-19 -26 -20 -20 -5 19 6
15 13 22 16 16 2 -7 -3 -23 -11 -35z m3731 -52 c-3 -7 4 -21 14 -30 16 -13 22
-14 33 -4 7 7 11 19 8 26 -2 7 2 10 12 6 14 -5 14 -9 -4 -33 -10 -15 -26 -34
-35 -41 -13 -11 -15 -10 -9 6 4 10 4 16 0 13 -4 -4 -9 -17 -11 -30 -3 -13 -12
-28 -20 -34 -9 -5 -34 -26 -55 -46 -21 -20 -59 -46 -84 -58 -42 -21 -60 -41
-36 -41 6 0 9 -6 8 -12 -2 -9 8 -13 29 -12 22 1 30 -2 27 -11 -10 -24 16 -26
48 -4 l31 23 21 -25 c12 -13 26 -24 31 -24 6 0 21 -8 34 -17 25 -18 23 -48 -4
-48 -8 0 -15 -4 -15 -10 0 -5 4 -10 9 -10 6 0 13 5 16 10 3 6 18 10 32 10 21
0 24 -2 13 -15 -15 -18 -3 -19 35 -5 25 10 25 9 10 -18 -23 -42 -41 -62 -56
-62 -10 0 -10 -3 -2 -11 9 -9 20 -5 43 15 34 28 72 37 51 12 -9 -11 -7 -15 7
-18 10 -3 26 -22 36 -42 9 -20 22 -36 28 -36 7 0 6 -5 -2 -15 -7 -8 -16 -13
-20 -10 -5 3 -7 -3 -5 -12 2 -10 4 -20 4 -22 1 -2 10 4 21 14 19 17 20 17 20
1 0 -10 -9 -20 -20 -23 -29 -8 -14 -23 23 -24 18 0 26 -3 19 -6 -26 -10 -92
-82 -81 -88 8 -5 8 -10 0 -18 -6 -6 -11 -15 -11 -19 0 -13 38 -9 43 5 3 9 9 9
24 0 12 -7 25 -8 34 -2 18 11 39 11 39 0 0 -11 -39 -26 -58 -22 -8 1 -19 -3
-26 -8 -15 -13 -19 -71 -5 -87 6 -7 1 -15 -16 -22 -15 -7 -25 -8 -25 -2 0 6
-4 10 -10 10 -5 0 -10 -7 -10 -15 0 -8 -9 -15 -19 -15 -11 0 -21 -5 -23 -11
-2 -7 -17 -13 -33 -15 -33 -3 -108 -21 -140 -33 -31 -13 -117 -39 -148 -46
-16 -3 -38 -15 -50 -25 -11 -11 -33 -20 -48 -20 -15 0 -34 -6 -41 -13 -7 -6
-32 -24 -55 -40 -24 -15 -43 -33 -43 -40 0 -9 -2 -9 -8 0 -6 9 -18 3 -42 -22
-19 -19 -40 -35 -47 -35 -15 0 -33 -31 -33 -58 0 -10 -9 -27 -20 -37 -11 -10
-20 -24 -20 -31 0 -7 -6 -15 -12 -17 -9 -4 -9 -8 -3 -14 6 -4 10 -19 10 -33 0
-14 5 -41 12 -61 6 -20 11 -57 11 -82 0 -25 5 -55 12 -66 34 -64 41 -385 12
-531 -18 -93 -18 -96 0 -139 19 -44 21 -96 15 -306 -2 -76 -5 -85 -42 -142
-47 -71 -75 -91 -130 -91 -21 0 -41 -5 -43 -11 -2 -6 -8 -11 -12 -11 -5 0 -20
-10 -33 -22 -61 -59 -62 -59 -95 -23 -73 77 -166 84 -245 18 -16 -12 -34 -23
-41 -23 -23 0 -49 -39 -52 -77 -3 -34 1 -41 34 -64 20 -14 53 -32 74 -39 32
-12 40 -11 62 4 25 16 26 18 11 39 -23 33 -18 45 23 56 90 26 179 7 236 -50
33 -34 38 -43 32 -71 -3 -17 -22 -50 -41 -74 -19 -23 -35 -46 -35 -51 0 -6
-11 -16 -25 -23 -19 -10 -22 -17 -15 -31 6 -10 11 -30 13 -46 6 -56 85 -113
157 -113 33 0 48 6 68 28 39 42 77 46 135 15 26 -15 47 -30 47 -34 0 -4 9 -11
20 -14 36 -11 21 -23 -37 -27 -36 -3 -84 -17 -126 -36 -37 -18 -74 -32 -82
-32 -8 0 -43 12 -78 26 -59 24 -67 25 -121 14 -59 -12 -185 -71 -309 -144 -74
-44 -123 -60 -133 -44 -3 5 -12 7 -20 4 -11 -4 -12 7 -9 57 3 34 10 78 15 97
9 34 9 34 5 -8 -6 -51 13 -55 28 -6 19 62 17 60 28 44 15 -24 29 7 18 43 -10
37 -32 54 -37 29 -2 -9 -8 -21 -14 -27 -6 -7 -7 0 -3 18 4 16 3 27 -3 27 -5 0
-13 -11 -16 -25 -9 -37 -36 -33 -31 5 l4 30 -37 -27 c-20 -15 -41 -32 -45 -38
-6 -6 -10 -5 -14 3 -4 10 -9 9 -24 -4 -11 -10 -19 -12 -19 -5 0 8 -5 8 -20 -1
-27 -17 -74 -113 -64 -130 11 -18 5 -84 -12 -116 -8 -15 -14 -33 -14 -40 0 -7
-4 -11 -8 -8 -11 6 -45 -70 -38 -83 3 -5 0 -14 -8 -20 -19 -16 -18 -94 1 -87
11 4 13 1 8 -14 -8 -25 8 -26 59 -5 20 8 36 11 36 6 0 -5 -7 -12 -16 -15 -9
-4 -15 -9 -12 -12 9 -8 58 18 58 31 0 8 10 10 25 7 18 -3 27 1 32 14 12 34 67
84 93 86 14 1 35 -2 48 -6 13 -4 22 -3 22 2 0 14 33 8 38 -6 2 -7 13 -12 24
-12 15 0 18 4 13 23 -6 18 -5 20 6 10 7 -7 23 -13 35 -13 13 0 32 -12 43 -26
27 -34 27 -21 0 23 -12 18 -18 40 -15 48 8 21 36 31 46 15 6 -10 12 -10 31 1
59 31 421 1 436 -36 2 -7 0 -28 -4 -46 -7 -26 -19 -39 -54 -56 -48 -25 -70
-28 -85 -13 -14 14 -79 -23 -78 -44 1 -9 -5 -16 -13 -16 -10 0 -14 -7 -10 -20
4 -16 -2 -20 -39 -26 -24 -3 -55 -4 -69 -2 -42 8 -17 -10 44 -32 48 -18 58
-25 54 -41 -3 -10 -8 -18 -12 -17 -3 1 -23 -1 -43 -5 -39 -8 -50 -31 -26 -55
8 -8 8 -15 0 -25 -6 -7 -9 -22 -6 -34 3 -11 1 -24 -5 -27 -14 -9 -14 -46 -1
-46 6 0 10 -9 10 -19 0 -27 22 -33 143 -39 59 -2 110 -9 113 -13 3 -5 13 -9
22 -9 10 0 35 -9 57 -20 22 -11 48 -20 58 -20 10 0 39 -9 65 -19 66 -27 86
-34 97 -35 21 -2 75 -37 89 -58 21 -30 20 -96 -1 -120 -9 -10 -26 -18 -39 -18
-35 0 -66 -15 -108 -55 -51 -48 -82 -60 -110 -42 -15 9 -32 11 -56 5 -19 -4
-52 -5 -72 -2 -27 4 -47 -1 -80 -18 -24 -13 -62 -30 -85 -38 -57 -18 -163 -19
-196 -1 -22 12 -31 12 -66 -2 -39 -16 -71 -14 -71 4 0 14 -48 11 -61 -4 -7 -7
-25 -11 -41 -9 -15 2 -34 -1 -42 -7 -11 -9 -23 -7 -52 9 -21 11 -51 20 -66 20
-20 0 -26 4 -22 14 3 9 -5 21 -20 31 -14 10 -23 21 -20 26 3 5 2 9 -3 8 -29
-5 -52 4 -58 21 -4 12 -15 20 -27 20 -12 0 -18 3 -14 7 4 4 -8 14 -26 23 -18
9 -32 21 -31 28 2 6 -13 14 -32 18 -19 3 -32 10 -29 15 3 5 0 9 -6 9 -6 0 -9
4 -6 8 3 5 -17 15 -44 22 -27 7 -47 17 -44 22 3 5 -5 8 -18 6 -37 -4 -120 12
-135 28 -12 12 -12 14 6 14 33 0 25 17 -11 24 -120 24 -118 23 -48 25 51 1 61
4 47 12 -10 6 -34 9 -52 7 -24 -3 -31 0 -28 9 3 8 -3 13 -16 13 -25 0 -29 20
-3 21 12 0 10 3 -8 10 -14 6 -35 8 -48 6 -12 -2 -20 -2 -18 1 3 3 -2 11 -12
18 -15 12 -14 12 8 7 24 -6 25 -6 7 14 -11 13 -26 19 -38 16 -13 -4 -19 0 -19
11 0 9 7 16 15 16 8 0 15 5 15 10 0 6 -18 10 -41 10 -32 0 -40 3 -36 14 4 9
-2 17 -13 21 -11 3 -29 18 -42 33 -13 15 -35 33 -50 39 -16 7 -28 19 -28 27 0
7 -9 16 -21 19 -16 4 -19 11 -14 26 4 15 2 21 -8 21 -8 0 -20 15 -27 33 -51
129 -69 167 -80 167 -5 0 -10 10 -10 23 0 13 -5 28 -12 35 -8 8 -8 15 2 27 10
12 10 15 -3 15 -24 0 -47 40 -47 80 -1 40 -48 97 -73 87 -12 -4 -16 10 -22 70
-4 49 -3 78 3 82 6 4 9 15 7 26 -2 11 -4 23 -4 28 -1 4 -8 7 -17 7 -11 0 -15
6 -11 19 3 12 -1 22 -9 25 -12 5 -12 9 -2 25 7 11 16 17 20 15 4 -3 8 4 8 15
0 12 -7 21 -15 21 -8 0 -15 -7 -15 -15 0 -21 -16 -19 -25 3 -20 49 -23 75 -13
98 8 18 8 28 0 36 -8 8 -7 15 4 25 9 10 12 25 8 46 -3 18 -6 44 -6 60 1 31
-12 35 -27 10 -16 -27 -13 3 3 35 16 32 20 147 6 182 -5 14 -14 68 -19 120 -5
52 -17 140 -25 195 -31 213 -37 287 -37 483 0 330 0 336 98 762 35 157 69 323
73 369 9 85 37 173 72 223 10 14 18 32 18 40 0 7 6 31 14 53 10 29 13 82 10
196 l-3 156 25 12 c14 6 31 11 38 11 13 0 129 44 158 60 27 15 29 -14 4 -62
-13 -24 -39 -72 -59 -108 -20 -36 -37 -72 -37 -80 0 -9 -11 -32 -25 -52 -27
-39 -31 -53 -15 -43 6 4 10 -5 10 -19 0 -16 6 -26 15 -26 9 0 12 -6 9 -15 -7
-18 9 -19 37 -2 17 10 22 9 33 -5 7 -10 16 -15 19 -12 3 4 9 -5 13 -20 9 -36
25 -33 52 10 13 20 26 33 29 30 3 -3 0 -12 -7 -21 -7 -9 -10 -18 -8 -21 3 -3
28 20 54 50 27 31 53 56 58 56 4 0 5 -16 2 -36 l-7 -35 25 17 c14 9 26 13 26
10 0 -4 -16 -36 -35 -72 -45 -83 -44 -97 3 -52 44 42 207 156 358 251 60 37
147 92 194 122 109 70 161 98 167 91 3 -3 -25 -27 -63 -53 -37 -26 -87 -65
-110 -86 -28 -25 -44 -33 -46 -25 -3 9 -16 4 -42 -17 -21 -17 -52 -40 -70 -51
-42 -29 -123 -114 -109 -114 7 0 15 4 18 10 5 8 58 45 138 93 15 10 27 13 27
7 0 -6 -15 -17 -32 -25 -38 -15 -87 -55 -69 -55 16 0 245 117 297 151 33 23
157 90 217 117 4 2 4 -4 0 -13 -5 -15 -3 -16 15 -6 26 14 35 14 27 1 -11 -18
30 -10 78 15 26 14 47 21 47 15 0 -13 57 -1 95 21 16 9 41 20 55 24 14 4 32
13 40 21 8 7 33 17 55 22 22 5 49 13 60 17 51 17 -22 -26 -92 -55 -41 -17 -97
-47 -124 -67 -49 -35 -65 -52 -31 -33 38 21 96 40 125 40 29 0 30 -1 11 -15
-18 -14 -17 -15 11 -9 17 3 35 7 42 9 24 8 24 -15 0 -24 -58 -22 -35 -38 46
-33 25 2 27 0 21 -23 -6 -23 -4 -25 32 -25 57 1 226 45 282 74 59 30 200 76
216 70 9 -3 16 -1 16 4 0 6 -6 13 -12 15 -7 2 -2 3 12 1 14 -1 37 6 50 16 14
11 29 20 34 20 14 0 115 89 170 147 49 54 62 64 53 39z m-3820 -102 c-93 -188
-109 -220 -133 -259 -22 -37 -35 -35 -15 3 5 9 26 52 45 96 35 77 138 257 144
252 1 -2 -17 -43 -41 -92z m7076 9 c7 -39 1 -40 -11 -4 -6 17 -7 31 -3 31 5 0
11 -12 14 -27z m-325 -59 c9 -19 9 -24 -1 -24 -18 0 -37 21 -37 42 0 24 24 13
38 -18z m-4 -73 c3 -22 13 -46 21 -55 8 -8 15 -20 15 -27 0 -20 -16 0 -44 57
-30 60 -31 64 -12 64 8 0 16 -16 20 -39z m-2857 -38 c14 -15 28 -20 39 -16 13
5 15 3 9 -8 -7 -12 -6 -12 7 -1 20 16 26 6 19 -31 l-6 -27 -56 52 c-30 29 -62
62 -70 73 l-14 20 25 -20 c14 -11 35 -30 47 -42z m-44 -5 c11 -9 17 -22 14
-30 -4 -8 -6 -7 -6 5 -1 10 -6 15 -11 12 -12 -7 -40 12 -40 26 0 13 21 7 43
-13z m3017 -83 c0 -8 -4 -15 -10 -15 -5 0 -10 7 -10 15 0 8 5 15 10 15 6 0 10
-7 10 -15z m-6733 -52 c-3 -10 -5 -2 -5 17 0 19 2 27 5 18 2 -10 2 -26 0 -35z
m6718 -41 c-3 -4 -10 0 -14 7 -7 11 -9 11 -13 0 -10 -28 -20 1 -13 38 l7 38
20 -38 c11 -22 17 -42 13 -45z m-6679 -58 c-4 -13 -13 -24 -21 -24 -19 0 -19
10 3 62 17 42 17 42 20 14 2 -15 1 -39 -2 -52z m6714 31 c0 -8 -7 -15 -15 -15
-8 0 -15 7 -15 15 0 8 7 15 15 15 8 0 15 -7 15 -15z m39 -54 c8 -5 9 -11 3
-15 -5 -3 -15 1 -22 9 -14 16 -3 20 19 6z m71 -100 c0 -11 5 -23 10 -26 17
-11 11 -35 -9 -35 -11 0 -21 9 -24 23 -2 12 -8 30 -12 40 -5 13 -2 17 14 17
14 0 21 -6 21 -19z m-6799 -97 c-14 -60 -41 -94 -41 -50 0 31 43 133 49 115 2
-6 -2 -36 -8 -65z m7642 -174 c19 -104 34 -199 42 -265 3 -27 8 -68 11 -90 l5
-40 -15 32 c-8 17 -17 60 -21 95 -3 34 -15 119 -26 188 -31 199 -30 196 -20
180 5 -8 16 -53 24 -100z m-3613 66 c0 -15 -37 -32 -47 -22 -4 3 1 6 10 6 10
0 14 5 11 15 -4 9 0 15 10 15 9 0 16 -6 16 -14z m3050 -31 c0 -5 -5 -3 -10 5
-5 8 -10 20 -10 25 0 6 5 3 10 -5 5 -8 10 -19 10 -25z m150 -12 c0 -13 -4 -10
-15 11 -19 36 -19 41 0 22 8 -8 15 -23 15 -33z m-3250 -3 c0 -5 -7 -10 -16
-10 -8 0 -12 5 -9 10 3 6 10 10 16 10 5 0 9 -4 9 -10z m3160 -16 c0 -8 -4 -12
-10 -9 -5 3 -10 13 -10 21 0 8 5 12 10 9 6 -3 10 -13 10 -21z m65 -23 c3 -5 1
-12 -5 -16 -5 -3 -10 1 -10 9 0 18 6 21 15 7z m-7474 -107 c-5 -16 -10 -21
-10 -12 -1 18 10 51 15 45 2 -1 -1 -16 -5 -33z m-184 -56 c-3 -8 -6 -5 -6 6
-1 11 2 17 5 13 3 -3 4 -12 1 -19z m7577 7 c3 -8 1 -15 -4 -15 -6 0 -10 7 -10
15 0 8 2 15 4 15 2 0 6 -7 10 -15z m-7400 -180 c-4 -8 -8 -15 -10 -15 -2 0 -4
7 -4 15 0 8 4 15 10 15 5 0 7 -7 4 -15z m7916 -37 c0 -38 -3 -49 -11 -41 -10
10 -4 93 7 93 2 0 4 -23 4 -52z m-8153 5 c-3 -10 -5 -4 -5 12 0 17 2 24 5 18
2 -7 2 -21 0 -30z m-40 -115 c-3 -8 -6 -5 -6 6 -1 11 2 17 5 13 3 -3 4 -12 1
-19z m-162 -27 c3 -5 1 -12 -5 -16 -5 -3 -10 1 -10 9 0 18 6 21 15 7z m165
-22 c0 -5 -4 -9 -10 -9 -5 0 -10 7 -10 16 0 8 5 12 10 9 6 -3 10 -10 10 -16z
m4475 12 c8 -13 -2 -17 -60 -26 l-50 -7 19 21 c20 22 80 29 91 12z m3818 -88
c16 -193 15 -200 -3 -73 -23 162 -22 150 -11 150 4 0 11 -35 14 -77z m-175 6
c-3 -20 -5 -19 -9 9 -3 20 -2 29 4 23 5 -5 7 -19 5 -32z m-8323 -26 c-9 -15
-14 -20 -11 -10 4 11 9 31 13 45 5 19 8 22 11 10 2 -9 -4 -29 -13 -45z m4615
22 c0 -8 -4 -15 -9 -15 -13 0 -22 16 -14 24 11 11 23 6 23 -9z m361 -42 c13
-16 23 -36 21 -47 -2 -10 2 -22 9 -27 19 -12 -4 -55 -39 -73 -60 -31 -335 -65
-308 -38 4 4 33 7 64 7 100 0 197 77 209 165 3 22 9 40 13 40 4 0 18 -12 31
-27z m-477 -34 c6 -32 63 -119 78 -119 4 0 8 -5 8 -11 0 -7 -10 -5 -25 5 -13
9 -44 16 -67 16 -24 0 -54 3 -66 7 -21 5 -23 10 -18 37 6 28 60 96 77 96 3 0
9 -14 13 -31z m3845 -96 c1 -18 -3 -33 -9 -33 -6 0 -9 33 -9 83 2 77 2 79 9
32 5 -27 9 -65 9 -82z m288 5 c-2 -24 -4 -5 -4 42 0 47 2 66 4 43 2 -24 2 -62
0 -85z m-8656 59 c-13 -13 -15 1 -4 30 7 17 8 17 11 -1 2 -10 -1 -23 -7 -29z
m-871 -43 c-5 -19 -11 -39 -15 -42 -7 -7 3 56 12 71 9 16 11 5 3 -29z m857 4
c-3 -8 -6 -5 -6 6 -1 11 2 17 5 13 3 -3 4 -12 1 -19z m313 12 c0 -5 -2 -10 -4
-10 -3 0 -8 5 -11 10 -3 6 -1 10 4 10 6 0 11 -4 11 -10z m8480 -67 c-1 -28 -3
-34 -10 -22 -8 14 -3 59 6 59 2 0 4 -17 4 -37z m-8723 -25 c-3 -8 -6 -5 -6 6
-1 11 2 17 5 13 3 -3 4 -12 1 -19z m123 -45 c0 -23 -4 -44 -9 -47 -12 -8 -23
57 -15 89 9 38 24 12 24 -42z m8600 -25 c0 -23 -3 -29 -9 -19 -8 12 -4 51 5
51 2 0 4 -15 4 -32z m-7485 -39 c-5 -71 -14 -108 -38 -154 -25 -50 -32 -32
-18 49 10 57 45 156 56 156 2 0 2 -23 0 -51z m-1157 -44 c-3 -3 -9 2 -12 12
-6 14 -5 15 5 6 7 -7 10 -15 7 -18z m62 6 c0 -6 -4 -13 -10 -16 -5 -3 -10 1
-10 9 0 9 5 16 10 16 6 0 10 -4 10 -9z m-185 -41 c3 -5 1 -10 -4 -10 -6 0 -11
5 -11 10 0 6 2 10 4 10 3 0 8 -4 11 -10z m8776 -261 c7 -4 5 -9 -5 -12 -14 -6
-16 7 -14 111 l2 117 3 -105 c2 -58 8 -107 14 -111z m-4016 181 c55 -11 116
-25 135 -31 19 -6 94 -12 165 -14 72 -1 143 -6 158 -10 20 -5 33 -3 46 9 22
20 73 20 131 0 25 -9 58 -13 74 -10 24 5 28 3 23 -13 -3 -11 1 -22 8 -25 8 -3
12 -20 9 -50 -2 -43 8 -62 19 -33 4 10 7 10 18 0 11 -11 10 -13 -5 -13 -15 0
-16 -6 -10 -45 4 -31 2 -50 -6 -60 -10 -12 -10 -21 -1 -41 16 -37 14 -61 -9
-77 -11 -8 -17 -18 -12 -23 4 -4 0 -3 -9 3 -12 10 -23 4 -62 -33 -26 -24 -47
-49 -47 -53 0 -5 -13 -14 -30 -20 -29 -10 -42 -40 -17 -42 6 0 -1 -6 -16 -13
-50 -22 -65 -71 -24 -79 17 -3 16 -5 -8 -6 -21 -1 -26 -4 -16 -10 10 -7 5 -17
-25 -46 -37 -34 -53 -48 -116 -96 -16 -11 -28 -29 -28 -39 0 -10 -3 -20 -7
-23 -5 -2 -2 -2 5 -1 33 8 4 -26 -60 -71 -39 -27 -79 -57 -89 -67 -16 -15 -32
-23 -125 -63 -29 -13 -48 -17 -127 -29 -34 -6 -32 16 3 24 20 5 21 7 8 18 -13
10 -24 9 -63 -8 -57 -25 -64 -25 -58 -2 2 10 19 24 36 32 31 12 31 13 8 17
-13 3 -27 0 -30 -6 -5 -8 -13 -7 -25 2 -15 11 -16 18 -9 32 13 22 5 55 -12 55
-7 0 -16 17 -20 37 -3 20 -23 70 -42 110 -27 56 -34 82 -30 108 4 23 1 38 -9
46 -16 13 -19 56 -5 61 6 2 -3 30 -20 63 -16 33 -29 69 -29 81 0 12 -6 25 -12
27 -8 4 -4 8 10 12 30 10 28 19 -18 69 -58 63 -49 78 11 18 52 -52 71 -56 89
-22 7 14 6 23 -5 34 -18 17 -20 36 -3 36 6 0 1 8 -10 19 -12 10 -22 25 -22 34
0 9 -6 22 -14 29 -7 8 -16 23 -20 35 -6 18 -2 22 33 28 22 4 45 4 50 1 13 -9
20 15 10 41 -9 24 -7 63 5 81 4 7 27 12 52 12 24 0 44 5 44 10 0 15 44 12 155
-10z m-5005 -20 c0 -5 -4 -10 -10 -10 -5 0 -10 5 -10 10 0 6 5 10 10 10 6 0
10 -4 10 -10z m-486 -27 c-4 -16 -10 -32 -15 -37 -7 -8 -4 17 7 52 7 24 14 11
8 -15z m467 -44 l-10 -24 0 26 c-1 14 2 29 6 33 12 12 14 -9 4 -35z m-494 -51
c-3 -7 -5 -2 -5 12 0 14 2 19 5 13 2 -7 2 -19 0 -25z m299 -40 c-14 -89 -35
-134 -31 -69 1 23 7 47 14 54 6 6 11 28 11 49 0 21 4 38 9 38 4 0 3 -33 -3
-72z m4841 -20 c25 -24 30 -38 11 -38 -16 0 -48 31 -48 47 0 19 10 16 37 -9z
m-5420 -180 c-3 -7 -5 -2 -5 12 0 14 2 19 5 13 2 -7 2 -19 0 -25z m440 -20
c-2 -13 -4 -5 -4 17 -1 22 1 32 4 23 2 -10 2 -28 0 -40z m103 45 c0 -5 -5 -15
-10 -23 -8 -12 -10 -11 -10 8 0 12 5 22 10 22 6 0 10 -3 10 -7z m-185 -153
c-9 -41 -17 -33 -9 9 4 17 9 30 11 27 3 -2 2 -19 -2 -36z m62 -22 c-3 -8 -6
-5 -6 6 -1 11 2 17 5 13 3 -3 4 -12 1 -19z m-197 -206 c-9 -14 -10 -11 -6 17
3 18 7 57 8 85 2 44 2 42 5 -17 2 -38 -1 -75 -7 -85z m5011 96 c0 -10 2 -10 6
0 11 28 30 8 42 -47 19 -86 4 -103 -49 -51 -17 17 -30 40 -30 54 0 14 -4 28
-10 31 -18 11 -10 25 15 25 14 0 25 -6 26 -12z m-5140 -110 c-6 -45 -11 -101
-11 -125 0 -23 -4 -43 -8 -43 -4 0 -2 55 4 123 7 67 13 131 14 142 2 18 3 18
7 2 3 -10 0 -55 -6 -99z m136 -210 c-2 -13 -4 -5 -4 17 -1 22 1 32 4 23 2 -10
2 -28 0 -40z m5638 -188 c-11 -5 -31 -9 -45 -9 -20 -1 -22 1 -10 9 8 5 29 9
45 9 26 0 27 -2 10 -9z m-1884 -381 c-5 -13 -10 -19 -10 -12 -1 15 10 45 15
40 3 -2 0 -15 -5 -28z m-1521 -54 c-33 -48 -62 -63 -33 -17 24 39 45 62 55 62
5 0 -5 -20 -22 -45z m1591 -2 c-8 -15 -10 -15 -11 -2 0 17 10 32 18 25 2 -3
-1 -13 -7 -23z m-15 -49 c-4 -9 -9 -15 -11 -12 -3 3 -3 13 1 22 4 9 9 15 11
12 3 -3 3 -13 -1 -22z m31 -16 c-3 -8 -6 -5 -6 6 -1 11 2 17 5 13 3 -3 4 -12
1 -19z m563 10 c0 -9 3 -9 12 0 7 7 22 12 35 12 17 0 23 -6 23 -23 0 -33 -6
-36 -48 -26 -22 5 -39 4 -43 -2 -3 -5 -19 -11 -34 -12 -41 -3 -43 24 -2 45 39
20 57 22 57 6z m-2349 -201 c-8 -8 -11 -5 -11 9 0 27 14 41 18 19 2 -9 -1 -22
-7 -28z m2731 -15 c7 -7 22 -12 35 -12 14 0 23 -6 23 -16 0 -10 -6 -14 -14
-11 -11 4 -13 1 -9 -10 4 -9 -1 -21 -12 -29 -17 -13 -20 -11 -31 13 l-11 28
-8 -37 c-5 -25 -13 -38 -23 -38 -9 0 -37 -18 -63 -40 -27 -23 -54 -38 -62 -34
-26 10 -39 188 -14 197 24 10 177 1 189 -11z m-2669 -62 c-45 -22 -71 -44 -97
-79 -20 -27 -36 -54 -36 -60 0 -6 -4 -11 -10 -11 -44 0 74 134 145 165 60 27
58 14 -2 -15z m-575 -367 c3 -23 -46 -123 -61 -123 -5 0 -6 -4 -2 -9 3 -5 -3
-16 -12 -23 -25 -18 -73 -77 -73 -90 0 -6 7 -7 16 -4 9 3 21 3 27 -1 21 -13
49 -14 65 -1 8 7 32 13 53 13 32 0 39 -3 39 -19 0 -11 -8 -29 -17 -40 -10 -12
-11 -15 -3 -8 19 16 40 15 40 -3 0 -8 9 -19 20 -25 13 -7 20 -21 20 -38 0 -16
5 -33 11 -39 9 -9 9 -34 0 -101 -6 -48 -11 -140 -12 -203 0 -119 -11 -176 -25
-131 -6 22 -24 31 -24 12 0 -5 -7 -10 -15 -10 -23 0 -57 86 -50 127 6 39 -2
43 -15 8 -12 -33 -26 -32 -38 3 -8 19 -11 22 -11 8 -1 -15 -4 -16 -16 -6 -9 8
-15 30 -15 57 0 52 28 182 43 201 8 10 3 19 -19 37 -16 14 -33 24 -38 25 -6 0
-19 9 -30 19 -12 11 -40 24 -64 29 -35 8 -44 7 -52 -7 -9 -15 -11 -14 -24 3
-14 17 -16 17 -32 1 -14 -13 -19 -14 -25 -3 -5 7 -9 20 -9 27 0 8 61 74 135
146 119 115 135 135 135 163 0 32 1 33 38 30 30 -2 38 -7 40 -25z m52 -188 c0
-8 -2 -15 -4 -15 -2 0 -6 7 -10 15 -3 8 -1 15 4 15 6 0 10 -7 10 -15z m-240
-469 c0 -6 -7 -2 -15 8 -8 11 -15 25 -15 30 0 6 7 2 15 -8 8 -11 15 -25 15
-30z m-512 -218 c15 -15 15 -41 0 -56 -8 -8 -17 -6 -34 11 -26 25 -30 43 -11
50 21 9 32 8 45 -5z m7291 -63 c0 -5 -6 1 -14 15 -8 14 -14 30 -14 35 0 6 6
-1 14 -15 8 -14 14 -29 14 -35z m-4795 6 c-2 -3 -12 3 -22 13 -16 17 -16 18 5
5 12 -7 20 -15 17 -18z m-2076 -166 c-3 -3 -9 2 -12 12 -6 14 -5 15 5 6 7 -7
10 -15 7 -18z m2297 -37 c19 -22 19 -22 -10 2 -48 40 -51 43 -30 32 11 -6 29
-21 40 -34z m-1813 -35 c14 -32 31 -78 38 -103 6 -25 16 -53 21 -63 6 -12 5
-26 -5 -44 -11 -22 -11 -31 -1 -48 7 -11 16 -36 20 -55 6 -28 -7 -14 -66 75
-97 145 -105 169 -18 54 28 -36 38 -43 47 -33 16 18 15 27 -2 21 -9 -4 -20 9
-32 35 -10 23 -25 48 -34 56 -13 14 -13 15 2 9 28 -10 32 32 9 83 -22 48 -26
70 -13 70 5 0 20 -26 34 -57z m6603 -13 c3 -5 -3 -10 -15 -10 -12 0 -18 5 -15
10 3 6 10 10 15 10 5 0 12 -4 15 -10z m-4565 -129 c36 -17 70 -31 76 -31 14 0
92 -39 78 -40 -16 0 -145 45 -185 65 -41 21 -69 44 -69 58 0 6 8 3 18 -6 9 -8
46 -29 82 -46z m-3162 38 c-2 -6 -8 -10 -13 -10 -5 0 -11 4 -13 10 -2 6 4 11
13 11 9 0 15 -5 13 -11z m36 -32 c-3 -9 -10 -17 -15 -17 -11 0 -12 34 -2 44
11 11 24 -9 17 -27z m64 -34 c4 -27 -1 -28 -33 -7 -28 19 -23 37 8 32 14 -2
23 -11 25 -25z m52 -44 c0 -22 -13 -25 -29 -6 -8 10 -7 17 1 25 15 15 28 6 28
-19z m1076 -83 c-4 -13 -20 24 -29 69 -5 23 -2 20 14 -14 11 -24 18 -49 15
-55z m6484 64 c0 -23 -7 -33 -30 -45 -27 -14 -30 -14 -39 3 -9 14 -10 13 -11
-10 0 -21 -5 -28 -19 -28 -11 0 -23 5 -27 11 -4 7 -11 2 -18 -12 -12 -24 -62
-44 -72 -28 -10 16 -24 10 -24 -11 0 -15 -7 -20 -29 -20 -16 0 -31 6 -34 14
-4 10 36 35 136 85 78 39 148 71 155 71 7 0 12 -13 12 -30z m-7533 -17 c-3
-10 -5 -4 -5 12 0 17 2 24 5 18 2 -7 2 -21 0 -30z m7631 -1 c-15 -19 -26 -25
-30 -18 -12 18 -9 26 15 36 37 15 40 11 15 -18z m-7558 -42 c0 -5 -4 -10 -10
-10 -5 0 -10 5 -10 10 0 6 5 10 10 10 6 0 10 -4 10 -10z m40 -25 c0 -8 -4 -15
-10 -15 -5 0 -7 7 -4 15 4 8 8 15 10 15 2 0 4 -7 4 -15z m40 -29 c0 -3 -4 -8
-10 -11 -5 -3 -10 -1 -10 4 0 6 5 11 10 11 6 0 10 -2 10 -4z m7060 -38 c0 -14
-5 -18 -16 -14 -9 3 -25 6 -37 6 -20 0 -19 2 8 19 34 21 45 18 45 -11z m-90
-24 c0 -17 -22 -14 -28 4 -2 7 3 12 12 12 9 0 16 -7 16 -16z m-6017 -37 c23
-24 50 -59 60 -78 16 -30 13 -29 -28 16 -88 96 -115 149 -32 62z m2403 0 c12
-12 -24 -8 -82 9 -30 8 -52 19 -49 23 5 9 118 -19 131 -32z m3554 18 c-12 -15
-30 -12 -30 6 0 5 10 9 21 9 18 0 19 -2 9 -15z m-52 -6 c-2 -6 -8 -10 -13 -10
-5 0 -11 4 -13 10 -2 6 4 11 13 11 9 0 15 -5 13 -11z m-48 -14 c0 -8 -7 -15
-15 -15 -8 0 -15 7 -15 15 0 8 7 15 15 15 8 0 15 -7 15 -15z m-55 -15 c-3 -5
-13 -10 -21 -10 -8 0 -14 5 -14 10 0 6 9 10 21 10 11 0 17 -4 14 -10z m-70
-10 c-3 -5 -10 -10 -16 -10 -5 0 -9 5 -9 10 0 6 7 10 16 10 8 0 12 -4 9 -10z
m-60 -10 c4 -6 -5 -10 -20 -10 -15 0 -24 4 -20 10 3 6 12 10 20 10 8 0 17 -4
20 -10z m-65 -20 c0 -5 -9 -10 -20 -10 -11 0 -20 5 -20 10 0 6 9 10 20 10 11
0 20 -4 20 -10z m-65 -10 c3 -5 -3 -10 -14 -10 -12 0 -21 5 -21 10 0 6 6 10
14 10 8 0 18 -4 21 -10z m-55 -9 c0 -14 -18 -23 -31 -15 -8 4 -7 9 2 15 18 11
29 11 29 0z m-60 -21 c0 -5 -9 -10 -21 -10 -11 0 -17 5 -14 10 3 6 13 10 21
10 8 0 14 -4 14 -10z m-65 -20 c-3 -5 -13 -10 -21 -10 -8 0 -14 5 -14 10 0 6
9 10 21 10 11 0 17 -4 14 -10z m-60 -20 c-3 -5 -13 -10 -21 -10 -8 0 -14 5
-14 10 0 6 9 10 21 10 11 0 17 -4 14 -10z m-5339 -48 c-6 -5 -36 23 -36 34 0
4 9 -1 20 -11 11 -10 18 -20 16 -23z m5284 28 c0 -5 -9 -10 -20 -10 -11 0 -20
5 -20 10 0 6 9 10 20 10 11 0 20 -4 20 -10z m-60 -19 c0 -5 -9 -11 -20 -14
-20 -5 -26 3 -13 16 9 10 33 8 33 -2z m-2704 -16 c14 -13 12 -15 -13 -14 -15
0 -22 3 -15 6 6 2 10 9 6 14 -8 14 6 10 22 -6z m2644 -10 c0 -8 -9 -15 -19
-15 -11 0 -23 -4 -26 -10 -7 -12 -35 -13 -35 -2 0 8 53 37 73 41 4 0 7 -6 7
-14z m-2605 -15 c3 -5 1 -10 -4 -10 -6 0 -11 5 -11 10 0 6 2 10 4 10 3 0 8 -4
11 -10z m2505 -30 c0 -13 -28 -25 -38 -16 -3 4 0 11 8 16 20 13 30 12 30 0z
m-60 -33 c0 -14 -68 -38 -75 -26 -6 8 41 36 63 38 6 1 12 -5 12 -12z m-90 -47
c0 -21 -15 -27 -25 -10 -7 12 2 30 16 30 5 0 9 -9 9 -20z m-50 -15 c0 -8 -5
-15 -11 -15 -6 0 -24 -9 -40 -21 -16 -11 -29 -17 -29 -13 0 4 -13 -5 -29 -20
-21 -20 -31 -24 -36 -16 -5 8 0 17 10 24 25 15 129 75 133 75 1 1 2 -6 2 -14z
m-166 -100 c-4 -8 -15 -15 -26 -15 -17 0 -18 3 -8 15 7 8 19 15 26 15 8 0 11
-6 8 -15z m-54 -24 c0 -6 -12 -16 -27 -23 -19 -9 -27 -20 -25 -33 3 -16 1 -18
-9 -7 -17 16 -29 15 -29 -1 0 -7 -16 -19 -35 -27 -33 -13 -82 -54 -60 -50 22
5 35 -1 35 -14 0 -12 -5 -12 -31 1 -41 21 -47 10 -15 -28 34 -40 25 -51 -12
-16 -33 32 -52 34 -83 7 -27 -22 -20 -27 11 -8 10 7 22 9 26 5 10 -10 -30 -45
-71 -63 -21 -8 -35 -21 -35 -32 0 -9 -9 -28 -19 -41 l-18 -24 -7 33 c-6 35
-18 34 -23 -1 -2 -12 -8 -29 -13 -38 -8 -14 -9 -13 -10 6 0 42 18 73 44 73 13
0 26 7 30 15 3 8 1 15 -4 15 -15 0 -117 -46 -242 -108 -100 -49 -108 -55 -108
-82 0 -36 -38 -65 -97 -75 -37 -6 -80 -31 -133 -78 -8 -7 -28 -21 -45 -31 -38
-22 62 72 167 157 58 47 137 92 325 186 136 69 268 139 293 156 46 32 212 135
217 135 2 0 3 -4 3 -9z m-1729 -161 c-15 -16 -17 -15 -34 1 -17 18 -17 19 0
37 17 17 19 17 34 -2 14 -18 14 -21 0 -36z m343 38 c16 -27 -14 -54 -43 -39
-24 13 -27 31 -9 49 16 16 38 12 52 -10z m1274 -6 c2 -7 -2 -10 -12 -6 -9 3
-16 11 -16 16 0 13 23 5 28 -10z m-1898 -26 c0 -3 -4 -8 -10 -11 -5 -3 -10 -1
-10 4 0 6 5 11 10 11 6 0 10 -2 10 -4z m1120 -119 c0 -2 -17 -19 -37 -38 l-38
-34 34 38 c33 34 41 42 41 34z m564 -31 c-9 -15 -19 -24 -22 -22 -2 3 3 17 12
32 10 14 20 23 23 21 2 -3 -3 -17 -13 -31z m-146 -28 c-4 -27 -28 -36 -29 -11
-1 16 -2 16 -6 1 -3 -11 -14 -18 -29 -18 -34 0 -30 17 9 34 46 21 59 19 55 -6z
m-107 -59 c-7 -17 -10 -19 -10 -6 -1 17 -21 25 -21 9 0 -5 -22 -21 -50 -36
-27 -15 -50 -25 -50 -22 0 3 0 8 0 11 0 3 2 4 4 3 2 -2 12 4 22 13 11 9 26 19
34 23 8 3 29 14 45 25 34 20 40 15 26 -20z m-3801 -29 c0 -11 -4 -20 -10 -20
-5 0 -10 9 -10 20 0 11 5 20 10 20 6 0 10 -9 10 -20z m40 -34 c0 -3 -4 -8 -10
-11 -5 -3 -10 -1 -10 4 0 6 5 11 10 11 6 0 10 -2 10 -4z m5962 -68 c-4 -17 -2
-20 11 -15 9 3 19 2 22 -2 6 -12 -65 -25 -75 -14 -13 14 8 53 29 53 15 0 18
-5 13 -22z m78 2 c0 -5 -5 -10 -11 -10 -5 0 -7 5 -4 10 3 6 8 10 11 10 2 0 4
-4 4 -10z m60 -15 c20 6 36 -21 16 -28 -13 -5 -66 3 -66 10 0 2 5 14 12 26 11
20 13 20 16 4 2 -12 9 -16 22 -12z m-218 -27 c-10 -10 -44 0 -37 12 3 5 14 6
26 3 12 -3 17 -9 11 -15z m-5597 -28 c-10 -11 -20 -18 -23 -15 -7 6 18 35 31
35 5 0 2 -9 -8 -20z m5870 10 c8 -13 -5 -13 -25 0 -13 8 -13 10 2 10 9 0 20
-4 23 -10z m-2755 -34 c0 -2 -12 -11 -27 -20 l-28 -17 24 20 c23 21 31 25 31
17z m-115 -49 c-8 -13 -12 -27 -8 -30 3 -4 -1 -7 -10 -7 -24 0 -21 18 6 41 29
24 30 24 12 -4z m-244 -17 c-22 -19 -41 -26 -41 -15 0 5 51 34 60 34 3 0 -6
-9 -19 -19z m-111 -38 c0 -10 -70 -45 -77 -39 -2 3 13 14 34 25 46 25 43 24
43 14z"/>
<path d="M8170 7376 c0 -12 52 -118 56 -113 6 5 -42 117 -50 117 -4 0 -6 -2
-6 -4z"/>
<path d="M8230 7245 c0 -5 5 -17 10 -25 5 -8 10 -10 10 -5 0 6 -5 17 -10 25
-5 8 -10 11 -10 5z"/>
<path d="M8281 7140 c0 -8 4 -22 9 -30 12 -18 12 -2 0 25 -6 13 -9 15 -9 5z"/>
<path d="M8310 7055 c0 -5 5 -17 10 -25 5 -8 10 -10 10 -5 0 6 -5 17 -10 25
-5 8 -10 11 -10 5z"/>
<path d="M8560 6981 c0 -12 6 -21 15 -21 8 0 15 4 15 9 0 5 -7 14 -15 21 -13
10 -15 9 -15 -9z"/>
<path d="M8617 6932 c-21 -4 -18 -27 4 -27 8 0 17 -4 21 -10 13 -17 17 0 5 20
-7 12 -19 19 -30 17z"/>
<path d="M9000 6081 c0 -5 5 -13 10 -16 6 -3 10 -2 10 4 0 5 -4 13 -10 16 -5
3 -10 2 -10 -4z"/>
<path d="M9166 6065 c4 -8 8 -15 10 -15 2 0 4 7 4 15 0 8 -4 15 -10 15 -5 0
-7 -7 -4 -15z"/>
<path d="M9180 6020 c0 -11 5 -20 10 -20 6 0 10 -7 10 -17 0 -9 2 -14 5 -11 8
8 -6 68 -16 68 -5 0 -9 -9 -9 -20z"/>
<path d="M8871 5954 c0 -11 3 -14 6 -6 3 7 2 16 -1 19 -3 4 -6 -2 -5 -13z"/>
<path d="M9301 5864 c0 -11 3 -14 6 -6 3 7 2 16 -1 19 -3 4 -6 -2 -5 -13z"/>
<path d="M9352 5840 c0 -8 4 -26 8 -40 6 -20 8 -21 8 -5 0 11 -3 29 -8 40 -5
12 -8 14 -8 5z"/>
<path d="M9311 5824 c0 -11 3 -14 6 -6 3 7 2 16 -1 19 -3 4 -6 -2 -5 -13z"/>
<path d="M9341 5694 c0 -16 4 -38 9 -49 6 -13 7 -5 3 25 -7 53 -13 66 -12 24z"/>
<path d="M9450 5696 c0 -9 5 -16 10 -16 6 0 10 4 10 9 0 6 -4 13 -10 16 -5 3
-10 -1 -10 -9z"/>
<path d="M9440 5654 c0 -8 5 -12 10 -9 6 3 10 10 10 16 0 5 -4 9 -10 9 -5 0
-10 -7 -10 -16z"/>
<path d="M9192 5610 c0 -19 2 -27 5 -17 2 9 2 25 0 35 -3 9 -5 1 -5 -18z"/>
<path d="M9457 5633 c-6 -10 29 -212 38 -222 8 -8 6 45 -6 126 -12 83 -22 112
-32 96z"/>
<path d="M9609 5540 c-3 -33 -3 -34 14 -115 10 -50 15 -60 15 -35 1 46 -25
182 -29 150z"/>
<path d="M9522 5515 c-1 -16 3 -48 7 -70 l9 -40 0 40 c0 22 -4 54 -8 70 l-8
30 0 -30z"/>
<path d="M9802 5015 c0 -16 2 -22 5 -12 2 9 2 23 0 30 -3 6 -5 -1 -5 -18z"/>
<path d="M10051 4634 c0 -11 3 -14 6 -6 3 7 2 16 -1 19 -3 4 -6 -2 -5 -13z"/>
<path d="M10064 2313 c-36 -76 -71 -151 -79 -166 -19 -37 -19 -53 0 -37 8 7
15 18 15 25 0 7 22 57 50 111 49 99 92 204 83 204 -2 0 -33 -62 -69 -137z"/>
<path d="M10103 2049 c-6 -6 -9 -18 -6 -25 3 -8 0 -14 -6 -14 -6 0 -11 -11
-11 -25 0 -14 -5 -34 -12 -44 -7 -11 -8 -26 -3 -37 8 -17 9 -16 12 8 3 14 15
37 28 50 19 19 23 31 18 59 -6 41 -6 42 -20 28z"/>
<path d="M5430 6910 c0 -5 5 -10 10 -10 6 0 10 5 10 10 0 6 -4 10 -10 10 -5 0
-10 -4 -10 -10z"/>
<path d="M5480 6890 c-13 -8 -13 -10 2 -10 9 0 20 5 23 10 8 13 -5 13 -25 0z"/>
<path d="M5305 6855 c-23 -11 -25 -14 -10 -14 11 0 29 6 39 14 24 18 11 18
-29 0z"/>
<path d="M5620 6830 c0 -5 5 -10 10 -10 6 0 10 5 10 10 0 6 -4 10 -10 10 -5 0
-10 -4 -10 -10z"/>
<path d="M5255 6820 c-3 -6 1 -7 9 -4 18 7 21 14 7 14 -6 0 -13 -4 -16 -10z"/>
<path d="M5200 6800 c-13 -9 -13 -10 0 -10 8 0 22 5 30 10 13 9 13 10 0 10 -8
0 -22 -5 -30 -10z"/>
<path d="M3574 6250 c-214 -146 -219 -151 -253 -211 l-23 -41 23 7 c13 4 44
16 69 27 26 12 75 23 117 26 78 5 88 16 24 26 -38 6 -67 26 -38 26 54 0 215
-33 244 -50 19 -11 53 -22 76 -26 87 -11 142 -28 157 -46 16 -20 48 -41 93
-59 31 -12 51 -42 52 -76 1 -24 -20 -32 -28 -10 -4 9 -8 9 -14 1 -5 -7 -58
-15 -128 -19 -175 -10 -305 -53 -381 -127 -30 -30 -36 -42 -37 -84 -1 -27 -6
-52 -11 -55 -11 -9 2 -49 16 -49 6 0 9 2 6 5 -6 6 39 60 100 121 51 51 182
118 272 139 74 17 176 20 185 5 3 -5 15 -10 26 -10 37 0 16 -33 -40 -62 -55
-29 -117 -36 -150 -18 -18 9 -35 4 -164 -48 -21 -9 -61 -31 -90 -49 -28 -18
-59 -33 -69 -33 -10 0 -18 -6 -18 -14 0 -8 -7 -16 -15 -19 -9 -4 -13 -17 -12
-37 2 -27 6 -30 37 -32 39 -1 67 -4 120 -9 30 -3 35 -1 33 16 -5 42 9 66 54
95 l47 30 29 -60 c30 -65 75 -103 134 -115 36 -7 129 8 188 31 45 17 105 88
105 122 0 29 8 27 49 -7 l34 -28 -21 -30 c-11 -16 -44 -40 -74 -53 -29 -13
-55 -25 -57 -27 -2 -1 2 -10 9 -18 16 -19 3 -33 -75 -82 -27 -18 -57 -39 -66
-48 -9 -8 -20 -15 -26 -15 -5 0 -18 -9 -28 -20 -10 -11 -26 -20 -37 -20 -10 0
-18 -4 -18 -9 0 -5 -9 -13 -20 -16 -32 -10 -23 -25 14 -25 19 0 38 -4 41 -10
3 -5 30 -10 58 -10 46 0 100 11 267 52 25 6 57 11 71 12 29 1 62 24 54 37 -3
4 1 11 8 16 15 9 47 53 47 65 0 5 -11 8 -25 8 -14 0 -25 4 -25 8 0 17 26 32
56 32 43 0 56 19 48 69 -6 36 -4 41 10 35 10 -4 16 -1 17 7 3 29 4 34 10 34 4
0 17 9 29 20 16 14 25 17 38 9 9 -5 24 -8 33 -7 13 3 15 19 15 91 l-1 87 33 0
c17 0 32 3 32 8 0 4 11 12 24 17 22 8 24 13 16 39 -5 17 -4 33 2 39 12 12 -69
110 -92 111 -8 1 -27 12 -42 26 -72 67 -231 119 -523 170 -49 8 -106 20 -125
25 -89 23 -232 32 -337 20 -58 -6 -107 -9 -110 -7 -6 7 90 27 99 21 4 -3 16 0
25 5 16 9 16 10 -4 11 -31 0 -54 11 -47 21 3 5 -14 9 -37 9 -40 0 -41 1 -23
14 13 11 16 18 8 26 -7 7 -27 -1 -70 -30z m51 -130 c3 -5 -1 -10 -9 -10 -9 0
-16 5 -16 10 0 6 4 10 9 10 6 0 13 -4 16 -10z m373 -517 c2 -8 -5 -13 -17 -13
-12 0 -21 6 -21 16 0 18 31 15 38 -3z"/>
<path d="M3658 6053 c7 -3 16 -2 19 1 4 3 -2 6 -13 5 -11 0 -14 -3 -6 -6z"/>
<path d="M3928 5993 c7 -3 16 -2 19 1 4 3 -2 6 -13 5 -11 0 -14 -3 -6 -6z"/>
<path d="M4220 5400 c0 -5 5 -10 10 -10 6 0 10 5 10 10 0 6 -4 10 -10 10 -5 0
-10 -4 -10 -10z"/>
<path d="M4405 5200 c-3 -6 1 -7 9 -4 18 7 21 14 7 14 -6 0 -13 -4 -16 -10z"/>
<path d="M3035 3991 c-14 -28 -15 -38 -4 -57 6 -13 16 -21 21 -18 4 3 11 -2
14 -10 3 -9 10 -16 15 -16 6 0 5 8 -1 19 -5 11 -7 32 -4 48 3 17 -1 36 -9 47
-14 19 -15 18 -32 -13z"/>
<path d="M4870 3911 c0 -5 7 -15 17 -22 15 -13 15 -12 4 9 -12 23 -21 28 -21
13z"/>
<path d="M3008 3902 c-20 -4 -23 -17 -7 -28 12 -7 33 10 28 23 -2 5 -12 7 -21
5z"/>
<path d="M4829 3870 c24 -22 46 -38 49 -35 8 8 -30 46 -63 61 -26 13 -25 10
14 -26z"/>
<path d="M4725 3871 c8 -17 19 -33 25 -36 5 -3 10 -11 10 -16 0 -5 -13 0 -30
12 -37 28 -49 19 -25 -18 17 -25 17 -27 1 -14 -11 10 -20 11 -27 4 -16 -16 17
-86 46 -100 30 -13 38 -4 30 34 l-7 28 22 -32 c25 -38 40 -42 40 -12 0 11 4
18 9 15 11 -7 23 37 15 58 -7 19 -21 21 -26 4 -2 -6 -12 6 -20 28 -14 35 -53
74 -73 74 -3 0 1 -13 10 -29z"/>
<path d="M4632 3796 c-8 -19 -16 -22 -37 -18 -31 5 -30 -1 8 -86 l21 -47 10
50 c11 49 11 49 23 22 15 -33 37 -37 28 -4 -4 12 -13 35 -21 51 -7 16 -11 32
-9 37 3 4 1 10 -3 13 -5 3 -14 -5 -20 -18z"/>
<path d="M4540 3727 c0 -18 7 -42 15 -53 14 -18 14 -18 15 11 0 39 -10 75 -21
75 -5 0 -9 -15 -9 -33z"/>
<path d="M4154 3591 c-26 -28 -53 -34 -37 -8 5 9 3 9 -8 0 -24 -20 -105 -191
-95 -201 12 -12 46 34 65 88 16 44 20 49 20 27 1 -16 -4 -37 -9 -48 -8 -13 -7
-19 0 -19 6 0 8 -11 4 -27 -4 -22 -3 -25 6 -13 8 12 10 5 7 -30 -3 -25 -8 -53
-12 -62 -4 -11 -3 -18 4 -18 6 0 11 5 11 11 0 5 4 8 9 5 5 -3 12 1 15 10 9 24
7 36 -6 28 -8 -5 -9 -2 -3 12 17 42 35 130 30 152 -3 12 -1 22 4 22 10 0 36
88 29 96 -3 3 -18 -9 -34 -25z"/>
<path d="M3971 3446 c-9 -10 -8 -15 4 -20 10 -4 15 1 15 14 0 24 -4 25 -19 6z"/>
<path d="M3440 3410 c0 -5 5 -10 11 -10 5 0 7 5 4 10 -3 6 -8 10 -11 10 -2 0
-4 -4 -4 -10z"/>
<path d="M3420 3370 c0 -13 5 -20 13 -17 6 2 12 10 12 17 0 7 -6 15 -12 18 -8
2 -13 -5 -13 -18z"/>
<path d="M4661 3294 c0 -11 3 -14 6 -6 3 7 2 16 -1 19 -3 4 -6 -2 -5 -13z"/>
<path d="M4176 3124 c-11 -8 -16 -14 -10 -14 13 0 39 18 34 24 -3 2 -14 -2
-24 -10z"/>
<path d="M3848 2583 c7 -3 16 -2 19 1 4 3 -2 6 -13 5 -11 0 -14 -3 -6 -6z"/>
<path d="M6906 4792 c-2 -4 -1 -14 5 -22 7 -12 9 -10 9 8 0 23 -5 28 -14 14z"/>
<path d="M6415 4210 c4 -6 11 -8 16 -5 14 9 11 15 -7 15 -8 0 -12 -5 -9 -10z"/>
<path d="M6385 4200 c-3 -5 1 -10 10 -10 9 0 13 5 10 10 -3 6 -8 10 -10 10 -2
0 -7 -4 -10 -10z"/>
<path d="M6316 4135 c-15 -14 -23 -25 -17 -25 5 0 22 11 37 25 15 14 22 25 17
25 -6 0 -22 -11 -37 -25z"/>
<path d="M6221 4103 c-29 -6 -71 -32 -71 -44 0 -4 12 -1 28 7 15 7 34 14 43
14 9 0 19 7 23 15 3 8 4 14 3 14 -1 -1 -13 -4 -26 -6z"/>
<path d="M1913 2575 c0 -30 14 -42 30 -26 8 8 7 11 -3 11 -12 1 -11 4 3 14 16
12 16 14 1 20 -26 10 -31 7 -31 -19z"/>
<path d="M2330 1600 c0 -5 5 -10 10 -10 6 0 10 5 10 10 0 6 -4 10 -10 10 -5 0
-10 -4 -10 -10z"/>
<path d="M2340 1573 c0 -5 7 -17 15 -27 15 -20 20 -10 9 18 -6 16 -24 22 -24
9z"/>
<path d="M6754 555 c-17 -13 -17 -14 -2 -15 9 0 20 5 23 11 11 17 0 20 -21 4z"/>
<path d="M2161 6194 c0 -11 3 -14 6 -6 3 7 2 16 -1 19 -3 4 -6 -2 -5 -13z"/>
<path d="M2078 6129 c-14 -27 -22 -49 -17 -49 9 0 53 90 47 96 -2 1 -15 -20
-30 -47z"/>
<path d="M2261 6064 c0 -11 3 -14 6 -6 3 7 2 16 -1 19 -3 4 -6 -2 -5 -13z"/>
<path d="M1983 5953 c-11 -15 -39 -73 -63 -128 -23 -55 -57 -128 -75 -161 -21
-41 -37 -90 -45 -143 -7 -44 -17 -81 -21 -81 -5 0 -3 -13 6 -30 8 -16 15 -38
15 -49 0 -11 4 -22 9 -26 12 -7 51 48 51 72 0 10 4 23 8 29 40 44 63 224 27
210 -9 -3 -15 0 -15 9 0 14 6 30 69 168 17 37 31 70 31 73 0 3 7 21 16 40 21
44 12 54 -13 17z m-157 -470 c-9 -39 -12 -43 -14 -21 -3 23 12 68 22 68 2 0
-2 -21 -8 -47z"/>
<path d="M2208 5844 c-5 -4 -8 -16 -8 -28 0 -14 3 -17 11 -9 6 6 9 19 7 28 -1
9 -6 13 -10 9z"/>
<path d="M2181 5764 c0 -11 3 -14 6 -6 3 7 2 16 -1 19 -3 4 -6 -2 -5 -13z"/>
<path d="M1940 5574 c0 -14 -7 -32 -15 -40 -9 -9 -15 -32 -14 -57 l1 -42 13
49 c8 27 18 53 24 59 14 14 14 57 1 57 -5 0 -10 -12 -10 -26z"/>
<path d="M2162 5520 c0 -14 2 -19 5 -12 2 6 2 18 0 25 -3 6 -5 1 -5 -13z"/>
<path d="M1997 5486 c-4 -10 -7 -25 -6 -34 0 -11 4 -9 10 7 5 13 8 29 6 35 -2
5 -6 2 -10 -8z"/>
<path d="M2071 5474 c0 -11 3 -14 6 -6 3 7 2 16 -1 19 -3 4 -6 -2 -5 -13z"/>
<path d="M2231 5384 c0 -11 3 -14 6 -6 3 7 2 16 -1 19 -3 4 -6 -2 -5 -13z"/>
<path d="M1750 5349 c0 -5 5 -7 10 -4 6 3 10 8 10 11 0 2 -4 4 -10 4 -5 0 -10
-5 -10 -11z"/>
<path d="M1921 5329 c-6 -18 -11 -39 -10 -48 0 -9 7 4 14 29 16 51 13 67 -4
19z"/>
<path d="M1832 5230 c0 -14 2 -19 5 -12 2 6 2 18 0 25 -3 6 -5 1 -5 -13z"/>
<path d="M1436 5169 c-8 -42 0 -50 9 -9 4 17 5 34 2 36 -2 3 -7 -10 -11 -27z"/>
<path d="M1426 5103 c-6 -14 -5 -15 5 -6 7 7 10 15 7 18 -3 3 -9 -2 -12 -12z"/>
<path d="M2432 5078 c-8 -21 -12 -48 -10 -60 4 -22 5 -21 17 6 6 17 11 44 9
60 l-3 31 -13 -37z"/>
<path d="M1552 5057 c-7 -19 -12 -49 -11 -68 1 -27 4 -20 15 30 16 72 14 87
-4 38z"/>
<path d="M1225 4910 c-4 -17 -5 -34 -2 -36 2 -3 7 10 11 27 8 42 0 50 -9 9z"/>
<path d="M916 4531 c-4 -7 -5 -15 -2 -18 9 -9 19 4 14 18 -4 11 -6 11 -12 0z"/>
<path d="M870 4389 c0 -5 5 -7 10 -4 6 3 10 8 10 11 0 2 -4 4 -10 4 -5 0 -10
-5 -10 -11z"/>
<path d="M1030 4358 c0 -49 5 -47 13 5 3 20 2 37 -4 37 -5 0 -9 -19 -9 -42z"/>
<path d="M761 4334 c0 -11 3 -14 6 -6 3 7 2 16 -1 19 -3 4 -6 -2 -5 -13z"/>
<path d="M887 4163 c-4 -3 -7 -20 -6 -37 l1 -31 8 35 c9 36 8 45 -3 33z"/>
<path d="M840 4119 c0 -24 4 -38 10 -34 6 3 10 22 10 41 0 19 -4 34 -10 34 -5
0 -10 -18 -10 -41z"/>
<path d="M653 4040 c0 -25 2 -35 4 -22 2 12 2 32 0 45 -2 12 -4 2 -4 -23z"/>
<path d="M716 3914 c-9 -24 -7 -54 4 -54 6 0 10 9 10 19 0 11 3 26 6 35 3 9 2
16 -4 16 -5 0 -13 -7 -16 -16z"/>
<path d="M771 3854 c0 -11 3 -14 6 -6 3 7 2 16 -1 19 -3 4 -6 -2 -5 -13z"/>
<path d="M521 3778 c1 -7 5 -24 9 -38 7 -22 8 -21 9 13 1 20 -3 37 -9 37 -5 0
-10 -6 -9 -12z"/>
<path d="M562 3720 c0 -19 2 -27 5 -17 2 9 2 25 0 35 -3 9 -5 1 -5 -18z"/>
<path d="M973 3695 c0 -22 2 -30 4 -17 2 12 2 30 0 40 -3 9 -5 -1 -4 -23z"/>
<path d="M162 3685 c0 -16 2 -22 5 -12 2 9 2 23 0 30 -3 6 -5 -1 -5 -18z"/>
<path d="M582 3670 c0 -19 2 -27 5 -17 2 9 2 25 0 35 -3 9 -5 1 -5 -18z"/>
<path d="M532 3650 c0 -19 2 -27 5 -17 2 9 2 25 0 35 -3 9 -5 1 -5 -18z"/>
<path d="M181 3627 c-6 -8 -7 -17 -3 -21 4 -4 7 -18 8 -29 3 -77 5 -90 13 -81
5 5 5 34 1 68 -5 33 -7 63 -4 68 8 13 -3 9 -15 -5z"/>
<path d="M236 3575 c8 -37 14 -45 14 -19 0 10 -5 26 -10 34 -8 11 -9 7 -4 -15z"/>
<path d="M401 3534 c1 -27 5 -60 9 -74 5 -15 6 2 3 45 -7 83 -13 99 -12 29z"/>
<path d="M562 3555 c0 -16 2 -22 5 -12 2 9 2 23 0 30 -3 6 -5 -1 -5 -18z"/>
<path d="M702 3560 c0 -14 2 -19 5 -12 2 6 2 18 0 25 -3 6 -5 1 -5 -13z"/>
<path d="M2630 3450 c0 -5 5 -10 10 -10 6 0 10 5 10 10 0 6 -4 10 -10 10 -5 0
-10 -4 -10 -10z"/>
<path d="M1865 2980 c-3 -5 -1 -10 4 -10 6 0 11 5 11 10 0 6 -2 10 -4 10 -3 0
-8 -4 -11 -10z"/>
<path d="M1583 2173 c-18 -7 -16 -23 2 -23 8 0 15 7 15 15 0 8 -1 15 -2 14 -2
0 -9 -3 -15 -6z"/>
<path d="M3723 2122 c10 -10 17 -22 17 -26 0 -4 7 -14 15 -22 8 -9 15 -13 15
-10 0 12 -45 76 -54 76 -5 0 -2 -8 7 -18z"/>
<path d="M1255 1940 c-10 -11 -15 -20 -11 -20 14 0 46 21 46 30 0 16 -16 11
-35 -10z"/>
<path d="M3999 1723 c5 -10 24 -31 42 -48 31 -29 31 -28 -5 18 -40 49 -54 60
-37 30z"/>
<path d="M190 1465 c-13 -14 -19 -25 -13 -25 12 0 48 38 41 45 -2 3 -15 -6
-28 -20z"/>
<path d="M504 1262 c-41 -30 -72 -62 -59 -62 10 0 66 40 93 67 32 32 13 29
-34 -5z"/>
<path d="M404 1227 c-17 -17 -52 -53 -79 -78 -78 -72 -156 -161 -167 -189 -7
-18 -11 -21 -17 -11 -7 10 -9 9 -14 -3 -9 -23 4 -25 43 -8 21 9 29 17 22 20
-10 3 -5 13 17 33 17 15 31 30 31 32 0 2 35 40 78 84 79 82 127 141 120 149
-3 2 -18 -11 -34 -29z"/>
<path d="M4517 1229 c7 -7 15 -10 18 -7 3 3 -2 9 -12 12 -14 6 -15 5 -6 -5z"/>
<path d="M255 1190 c-4 -6 -22 -17 -41 -25 -19 -8 -34 -21 -34 -29 0 -9 -7
-16 -15 -16 -10 0 -15 -10 -15 -30 0 -29 1 -29 19 -12 10 9 35 32 55 49 38 36
63 73 47 73 -5 0 -13 -5 -16 -10z"/>
<path d="M496 1165 c-13 -13 -50 -58 -82 -100 -56 -76 -99 -114 -111 -101 -4
3 8 21 25 39 18 18 32 37 32 42 0 4 11 23 25 41 14 18 25 36 25 40 0 4 -11 -5
-25 -20 -14 -15 -25 -29 -25 -31 0 -5 -17 -26 -63 -78 -19 -22 -24 -33 -15
-36 7 -2 19 -12 26 -23 17 -23 34 -23 30 0 -2 10 2 16 11 14 7 -1 22 0 33 4
16 5 18 8 7 15 -11 6 -9 12 7 31 11 13 31 41 44 63 13 22 39 59 58 83 38 46
37 56 -2 17z"/>
<path d="M260 1135 c-7 -8 -8 -15 -2 -15 5 0 15 7 22 15 7 8 8 15 2 15 -5 0
-15 -7 -22 -15z"/>
<path d="M515 1080 c-10 -11 -14 -20 -8 -20 5 0 18 9 28 20 10 11 14 20 8 20
-5 0 -18 -9 -28 -20z"/>
<path d="M990 1085 c-7 -9 -11 -17 -9 -20 3 -2 10 5 17 15 14 24 10 26 -8 5z"/>
<path d="M107 1045 c-4 -8 -2 -17 3 -20 6 -4 10 -4 10 -1 0 2 3 11 6 20 3 9 2
16 -4 16 -5 0 -12 -7 -15 -15z"/>
<path d="M243 940 c-2 -23 28 -43 51 -34 8 3 12 12 9 20 -3 8 -9 11 -15 8 -5
-3 -17 1 -27 10 -15 14 -17 14 -18 -4z"/>
<path d="M140 879 c0 -10 44 -23 60 -17 5 1 -6 8 -25 14 -19 6 -35 7 -35 3z"/>
<path d="M151 584 c0 -11 3 -14 6 -6 3 7 2 16 -1 19 -3 4 -6 -2 -5 -13z"/>
<path d="M4960 513 c0 -16 -2 -16 -11 -3 -8 11 -9 6 -5 -20 10 -56 26 -60 26
-7 0 26 -2 47 -5 47 -3 0 -5 -8 -5 -17z"/>
<path d="M5044 498 c-5 -7 -9 -41 -10 -75 l-2 -63 34 0 35 0 -3 73 c-3 65 -5
72 -25 75 -11 2 -25 -3 -29 -10z"/>
<path d="M5172 498 c-19 -19 -15 -86 6 -91 15 -4 15 -5 0 -6 -9 0 -18 -11 -20
-23 -2 -18 -10 -23 -33 -24 -16 -1 -41 -7 -55 -13 -20 -9 -13 -10 40 -6 36 4
74 8 85 10 11 2 25 4 30 4 10 1 10 123 0 148 -6 16 -37 17 -53 1z"/>
<path d="M5491 491 c-11 -19 -16 -101 -6 -101 2 0 20 8 40 17 33 16 36 20 33
58 -3 35 -6 40 -30 43 -18 2 -30 -3 -37 -17z"/>
<path d="M5633 433 c-16 -6 -17 -43 -2 -43 17 0 -13 -25 -49 -39 -23 -10 -30
-17 -23 -24 7 -7 18 -7 35 0 13 7 27 8 32 3 5 -5 25 0 44 10 30 16 32 19 13
20 -20 0 -23 5 -23 40 0 40 -3 43 -27 33z"/>
<path d="M4930 420 c0 -6 7 -13 16 -17 11 -4 12 -8 4 -13 -8 -5 -8 -9 3 -13
13 -5 15 6 8 46 -2 11 -31 8 -31 -3z"/>
<path d="M5520 380 c-8 -5 -12 -12 -8 -15 8 -8 58 5 58 16 0 12 -31 11 -50 -1z"/>
<path d="M5400 371 c-14 -9 -109 -34 -240 -66 -55 -13 -55 -13 -15 -14 22 0
90 11 150 25 169 39 156 34 140 50 -16 16 -15 16 -35 5z"/>
<path d="M5480 370 c0 -5 5 -10 11 -10 5 0 7 5 4 10 -3 6 -8 10 -11 10 -2 0
-4 -4 -4 -10z"/>
<path d="M5515 341 c-11 -4 -80 -23 -152 -41 -73 -19 -133 -37 -133 -41 0 -5
12 -4 28 1 15 5 59 14 97 20 80 14 185 48 185 61 0 5 -1 9 -2 8 -2 0 -12 -4
-23 -8z"/>
</g>
</svg>
